<svg xmlns="http://www.w3.org/2000/svg" width="556.88928" height="494.57379" viewBox="0 0 96.460822 84.904737"><path fill="#ddb427" d="m 92.186179,45.698518 h -0.08 c 0,0 -0.06,-0.16 0.09,-0.54 l 1.81,-3 c 0.41,-0.52 0.61,-2.09 0.63,-4.9 0,-0.29 0,-0.38 0.05,-0.41 v 0 l 0.17,0.07 c 0.3,0.17 0.57,0.45 0.38,1.18 l -0.38,2.47 -0.35,1.61 a 0.57,0.57 0 0 0 0.09,0.4 v 0 h 0.14 c 0.14,0 0.29,-0.16 0.29,-0.44 a 4.36,4.36 0 0 1 0.48,-2.15 6,6 0 0 0 0,-3.24 0.51,0.51 0 0 1 0,-0.23 1.46,1.46 0 0 1 0.29,0.27 2.29,2.29 0 0 1 0.58,2.23 3.17,3.17 0 0 0 -0.19,1.56 2.9,2.9 0 0 1 -0.61,2.1 l -2.58,2.51 a 2.21,2.21 0 0 1 -0.84,0.44 m -1.49,2.23 a 0.4,0.4 0 0 1 -0.33,-0.13 0.49,0.49 0 0 1 -0.11,-0.44 13.65,13.65 0 0 1 0.37,-2.37 9.71,9.71 0 0 0 0.34,-2.83 c -0.1,-3.53 0.25,-5.6 1.11,-6.54 0.18,-0.17 0.3,-0.22 0.36,-0.22 0.06,0 0.18,0.12 0.22,0.39 a 3.81,3.81 0 0 1 -0.54,2.7 9.53,9.53 0 0 0 -0.41,3.74 0.5,0.5 0 0 0 0.14,0.36 0.31,0.31 0 0 0 0.28,0.1 c 0.18,0 0.37,-0.17 0.39,-0.61 a 7.31,7.31 0 0 1 0.39,-3.69 3.62,3.62 0 0 0 0.28,-2.56 c 0,-0.25 0,-0.28 0,-0.28 0,0 0.07,0 0.25,0.16 0.18,0.16 0.53,0.56 0.57,1.87 a 12.53,12.53 0 0 1 -0.62,4.37 13.74,13.74 0 0 1 -1,1.78 8,8 0 0 0 -1,2 2.72,2.72 0 0 0 -0.21,1.71 0.51,0.51 0 0 1 -0.43,0.54 m -0.47,-3.92 a 0.52,0.52 0 0 1 -0.33,-0.18 c -1.83,-1.41 -2.28,-3.79 -1.43,-7.45 0,-0.17 0.09,-0.28 0.11,-0.37 l 0.14,0.09 a 1.6,1.6 0 0 1 0.32,1.78 6.58,6.58 0 0 0 0.2,3.93 c 0.11,0.25 0.27,0.32 0.38,0.31 v 0 l 0.13,-0.11 a 0.33,0.33 0 0 0 0,-0.33 4.92,4.92 0 0 1 -0.22,-3 2.44,2.44 0 0 0 0.07,-0.92 c -0.07,-0.22 0,-0.28 0,-0.29 v 0 a 0.53,0.53 0 0 1 0.28,0.1 c 0.26,0.28 0.5,0.78 0.29,2.31 a 5.08,5.08 0 0 0 0.12,2.3 2.1,2.1 0 0 1 0.12,1.59 c -0.06,0.15 -0.12,0.23 -0.19,0.23 m -2.93,15.85 h -0.15 c 0,0 0,-0.13 0.15,-0.46 a 11.58,11.58 0 0 0 3.07,-4.25 c 0.39,-2 1,-3.07 2.2,-3.77 a 2,2 0 0 1 0.55,-0.22 c 0,0 0,0.13 -0.34,0.58 a 9.09,9.09 0 0 0 -1.45,2.84 9.42,9.42 0 0 1 -1.39,2.78 c -0.22,0.31 -0.29,0.49 -0.23,0.59 v 0 h 0.13 a 1.25,1.25 0 0 0 0.37,-0.14 6.63,6.63 0 0 0 1.35,-2.65 12.15,12.15 0 0 1 1.94,-3.73 c 0.25,-0.19 0.36,-0.23 0.4,-0.23 0.04,0 0.08,0.08 -0.13,0.57 -0.32,0.73 -0.59,1.52 -0.84,2.26 a 14.71,14.71 0 0 1 -1.92,4.17 4.34,4.34 0 0 1 -1.25,0.8 c -0.27,0.12 -0.54,0.2 -0.81,0.29 a 7.48,7.48 0 0 0 -0.9,0.33 2.94,2.94 0 0 1 -0.72,0.24 m -2.71,-1.26 c -0.06,0 -0.14,0 -0.28,-0.17 -2,-3 0,-6.58 2,-9 0.23,-0.21 0.37,-0.26 0.43,-0.26 a 0.23,0.23 0 0 1 0.09,0.33 3.83,3.83 0 0 0 -1,2.13 4.82,4.82 0 0 1 -0.89,2 4.9,4.9 0 0 0 -0.43,0.75 c -0.27,0.58 -0.35,1 -0.24,1.19 v 0 h 0.14 c 0.14,0 0.26,-0.17 0.35,-0.29 a 19.44,19.44 0 0 0 1.41,-3.27 9.47,9.47 0 0 1 1.3,-2.51 c 0.17,-0.2 0.29,-0.25 0.36,-0.25 l 0.17,0.06 a 0.58,0.58 0 0 1 0.1,0.45 24.33,24.33 0 0 1 -2.21,4.9 5.36,5.36 0 0 0 -0.85,2.46 c -0.13,0.8 -0.24,1.49 -0.44,1.5 m -0.66,3.88 a 0.27,0.27 0 0 1 -0.29,-0.17 0.5,0.5 0 0 1 0,-0.55 9,9 0 0 0 2,-4.71 l 0.37,-1 a 25.43,25.43 0 0 1 3.33,-6.65 c 0.27,-0.27 0.37,-0.3 0.39,-0.3 0.02,0 0.06,0.06 -0.06,0.46 a 37.32,37.32 0 0 1 -1.84,4.47 31.88,31.88 0 0 0 -1.37,3.27 c -0.09,0.29 -0.1,0.46 0,0.55 v 0 h 0.12 a 0.92,0.92 0 0 0 0.39,-0.24 18.42,18.42 0 0 0 2.26,-5.03 25.52,25.52 0 0 1 1.46,-3.82 c 0.26,-0.4 0.37,-0.45 0.39,-0.45 0.02,0 0.11,0 0.13,0.62 0,2.3 -0.94,5 -2.71,8.28 a 5.71,5.71 0 0 1 -1.12,1.13 3.71,3.71 0 0 0 -1.13,1.24 10.32,10.32 0 0 1 -1.86,2.65 0.84,0.84 0 0 1 -0.46,0.26 m -10.83,7.69 a 0.23,0.23 0 0 1 -0.18,-0.07 0.53,0.53 0 0 1 0,-0.39 11.85,11.85 0 0 0 0.44,-2.31 4.09,4.09 0 0 1 1.57,-2.43 33.61,33.61 0 0 0 3.78,-3.69 c 0.1,-0.12 0.14,-0.13 0.14,-0.13 0,0 0.08,0 0.1,0.36 0,0.57 -0.53,1.09 -1.35,1.86 -0.47,0.44 -1,1 -1.64,1.66 l -1.4,1.59 c -0.14,0.27 -0.17,0.45 -0.11,0.55 v 0 h 0.17 a 1.32,1.32 0 0 0 0.67,-0.46 17.5,17.5 0 0 1 2.88,-3.14 1.08,1.08 0 0 1 0.39,-0.26 c 0.05,0 0.11,0.13 0,0.52 a 3.42,3.42 0 0 1 -1.44,1.86 10.6,10.6 0 0 0 -2.46,2.92 4,4 0 0 1 -1.57,1.57 m 4.57,2.15 c -0.45,0 -0.9,0.06 -1.34,0.07 -0.44,0.01 -0.88,0 -1.31,0.08 -0.43,0.08 -0.38,-0.06 -0.4,-0.14 -0.02,-0.08 0.06,-0.22 0.32,-0.32 a 15.52,15.52 0 0 0 8.1,-6.13 0.81,0.81 0 0 1 0.5,-0.27 l 0.21,0.06 a 0.35,0.35 0 0 1 0,0.28 12.93,12.93 0 0 1 -4.21,4.38 l -0.47,0.35 c -0.29,0.2 -0.46,0.44 -0.4,0.62 0.06,0.18 0.12,0.16 0.25,0.15 a 0.59,0.59 0 0 0 0.25,-0.08 19.13,19.13 0 0 0 5.23,-5.27 c 0.1,-0.17 0.18,-0.19 0.2,-0.19 0.02,0 0.11,0.09 0.13,0.27 0.16,0.62 -0.31,1.45 -1.36,2.47 a 16.85,16.85 0 0 1 -3.67,3.3 10,10 0 0 1 -2.08,0.37 m -6.56,1.36 a 0.55,0.55 0 0 1 -0.58,-0.31 0.47,0.47 0 0 1 0.16,-0.52 c 0.12,-0.36 0.6,-0.69 1.27,-1.15 a 14.21,14.21 0 0 0 3.75,-3.44 21,21 0 0 1 4.16,-3.94 c 0.73,-0.6 1.53,-1.23 2.33,-1.93 0.29,-0.31 0.38,-0.34 0.4,-0.34 a 1.44,1.44 0 0 1 0,0.33 c -0.23,1 -1.16,2.09 -2.84,3.32 -1.84,1.38 -3.83,3 -4.5,4.25 -0.16,0.27 -0.2,0.42 -0.14,0.52 v 0 h 0.11 c 0.1,0 0.29,-0.07 0.88,-0.53 a 14.43,14.43 0 0 1 3.74,-3.45 8.84,8.84 0 0 0 3,-3.45 1.16,1.16 0 0 1 0.19,-0.29 4,4 0 0 1 0,0.77 c 0,1.18 -0.74,2.41 -2.23,3.66 a 19.75,19.75 0 0 1 -5.36,4 c -2,0.45 -3.26,1.11 -3.81,2 a 0.76,0.76 0 0 1 -0.58,0.37 m -13.4,3.64 c -0.59,0.06 -1.32,-0.16 -1.49,-0.58 h 0.09 a 5.67,5.67 0 0 0 3.05,-1.76 18.38,18.38 0 0 1 1.82,-1.45 2.16,2.16 0 0 1 0.9,-0.32 3.79,3.79 0 0 0 1.25,-0.4 5.28,5.28 0 0 1 2.14,-0.8 2.15,2.15 0 0 1 1.24,0.25 c 0.3,0.22 0.31,0.29 0.31,0.3 h -0.24 a 2.34,2.34 0 0 0 -0.53,0 4.44,4.44 0 0 0 -2.4,1 l -2.13,0.61 c -0.56,0.18 -1.15,0.5 -1.12,0.76 0,0.08 0.07,0.17 0.32,0.15 h 0.19 l 1.06,-0.27 a 3.5,3.5 0 0 0 1,-0.46 3.7,3.7 0 0 1 1.45,-0.56 7.77,7.77 0 0 0 1.51,-0.43 c 0.26,-0.1 0.53,-0.19 0.84,-0.28 v 0 a 0.31,0.31 0 0 1 0.37,0.3 0.41,0.41 0 0 1 -0.31,0.46 c -0.42,0.12 -0.83,0.21 -1.24,0.29 a 13.85,13.85 0 0 0 -2,0.56 43.34,43.34 0 0 0 -5.44,2.45 1.27,1.27 0 0 1 -0.67,0.21 m 4.89,4.74 c -2.07,0.17 -3.33,-0.25 -3.94,-1.34 a 4.7,4.7 0 0 0 1.53,0.11 17.11,17.11 0 0 0 5.26,-1.8 11.7,11.7 0 0 1 3.23,-1.22 c 0.47,0 0.68,0.07 0.71,0.18 0.03,0.11 -0.06,0.17 -0.2,0.24 l -5.59,2.31 c -0.33,0.13 -0.52,0.31 -0.49,0.47 0.03,0.16 0.17,0.2 0.41,0.19 a 16.34,16.34 0 0 0 3.75,-1.54 8,8 0 0 1 2.85,-1.11 h 0.38 c 0.19,0 0.28,0.07 0.28,0.1 0,0.03 -0.06,0.14 -0.32,0.28 a 40,40 0 0 1 -7.35,3.12 l -0.5,0.05 m -2.78,-1.87 a 2.84,2.84 0 0 1 -1,-0.1 12.62,12.62 0 0 1 -3.14,-1.57 9.86,9.86 0 0 0 -4.29,-1.24 0.5,0.5 0 0 1 -0.4,-0.6 0.58,0.58 0 0 1 0.47,-0.56 22,22 0 0 1 5,1.48 2.12,2.12 0 0 0 1,0.14 2.55,2.55 0 0 0 1.13,-0.39 l 0.65,-0.28 c 3.19,-1.41 6,-2.64 8.94,-2.88 h 1 c 0.3,0 0.43,0.08 0.43,0.12 0,0.04 -0.13,0.22 -0.82,0.29 h -0.31 a 4.54,4.54 0 0 0 -1.77,0.53 c -0.84,0.39 -1.62,0.79 -2.35,1.17 a 11.37,11.37 0 0 1 -3.58,1.46 h -0.31 c -1,0.13 -1.63,0.42 -1.63,0.74 0,0.32 0.22,0.33 0.6,0.36 a 7.66,7.66 0 0 0 0.83,0 10.13,10.13 0 0 0 3.53,-1.16 16.23,16.23 0 0 1 5.95,-2.72 h 0.26 a 0.81,0.81 0 0 1 0.24,0 1.8,1.8 0 0 1 -0.26,0.45 c -1.38,1.52 -4,2.65 -6.19,3.47 -0.59,0.2 -1.13,0.42 -1.61,0.61 a 8.27,8.27 0 0 1 -2.28,0.7 m 34.57,-32.11 a 1.63,1.63 0 0 1 -0.6,-0.07 0.8,0.8 0 0 0 -0.61,-0.2 1.1,1.1 0 0 0 -0.41,0.13 h -0.23 a 0.57,0.57 0 0 1 -0.66,-0.56 0.79,0.79 0 0 1 0.13,-0.45 0.52,0.52 0 0 1 0.41,-0.21 h 0.17 0.21 c 0.25,0 0.47,-0.19 0.68,-0.55 a 1.38,1.38 0 0 1 0.78,-0.42 0.78,0.78 0 0 1 0.71,0.39 1.5,1.5 0 0 1 0.11,1.42 0.82,0.82 0 0 1 -0.69,0.45 m -6.89,15.66 a 1.68,1.68 0 0 1 -0.88,-0.23 0.71,0.71 0 0 0 -0.64,-0.34 l -0.22,0.06 h -0.15 a 0.56,0.56 0 0 1 -0.44,-0.14 0.57,0.57 0 0 1 -0.16,-0.37 0.67,0.67 0 0 1 0.62,-0.71 h 0.22 a 0.53,0.53 0 0 0 0.31,0.07 1,1 0 0 0 0.65,-0.4 1.74,1.74 0 0 1 0.61,-0.2 0.74,0.74 0 0 1 0.74,0.38 1.4,1.4 0 0 1 0.06,1.35 0.9,0.9 0 0 1 -0.72,0.5 m -13.72,12.96 a 1.21,1.21 0 0 1 -1.07,-0.71 0.69,0.69 0 0 0 -0.59,-0.7 0.51,0.51 0 0 1 -0.43,-0.57 0.82,0.82 0 0 1 0.67,-0.68 0.44,0.44 0 0 1 0.43,0.22 0.63,0.63 0 0 0 0.63,0.28 1.77,1.77 0 0 0 0.39,-0.09 c 0.71,0 1.13,0.25 1.14,0.81 a 1.51,1.51 0 0 1 -1.17,1.44 m 15.62,-29.57 a 0.57,0.57 0 0 1 -0.52,-0.31 c -0.09,-0.26 -0.33,-0.38 -0.7,-0.35 a 2.24,2.24 0 0 0 -0.24,0 c -0.86,-0.14 -1,-0.68 -0.93,-1 a 1.44,1.44 0 0 1 1.14,-1.25 c 0.41,0 0.76,0.27 1,0.86 v 0.14 c 0.06,0.25 0.12,0.52 0.46,0.62 a 0.55,0.55 0 0 1 0.37,0.65 0.78,0.78 0 0 1 -0.62,0.6 m -6.41,14.13 a 0.45,0.45 0 0 1 -0.52,-0.4 c 0,-0.35 -0.31,-0.55 -0.82,-0.58 -0.56,-0.22 -0.84,-0.59 -0.76,-1.05 a 1.55,1.55 0 0 1 1.27,-1.11 c 0.55,0 0.92,0.35 1,1.14 a 0.72,0.72 0 0 0 0.27,0.88 0.57,0.57 0 0 1 0.2,0.63 0.79,0.79 0 0 1 -0.66,0.49 m -12.1,10.77 a 0.67,0.67 0 0 1 -0.56,-0.2 0.56,0.56 0 0 1 -0.07,-0.5 c 0.13,-0.33 0,-0.65 -0.43,-1 a 1.11,1.11 0 0 1 -0.24,-1.15 1.31,1.31 0 0 1 1.08,-0.65 1,1 0 0 1 1,0.36 1.4,1.4 0 0 1 0,1.31 0.73,0.73 0 0 0 -0.21,0.92 0.62,0.62 0 0 1 -0.55,0.86 m -64.04,-22.24 c 0,0 -0.13,0 -0.26,-0.32 a 2.44,2.44 0 0 1 0,-1 1.47,1.47 0 0 0 -0.1,-1.11 0.65,0.65 0 0 1 0,-0.66 0.54,0.54 0 0 1 0.39,-0.3 h 0.19 a 10.33,10.33 0 0 0 1.33,0.68 0.58,0.58 0 0 1 0.49,0.62 c 0,0.24 -0.27,0.42 -0.64,0.47 -0.53,0 -0.89,0.47 -1.14,1.27 -0.17,0.32 -0.27,0.36 -0.3,0.36 m -2.53,0.55 a 0.42,0.42 0 0 1 -0.23,-0.08 c -0.49,-0.43 -0.89,-0.71 -1.28,-0.68 a 0.64,0.64 0 0 0 -0.42,0.22 1.38,1.38 0 0 1 -0.41,0.11 0.51,0.51 0 0 1 -0.48,-0.18 0.54,0.54 0 0 1 0,-0.53 10.93,10.93 0 0 0 0.71,-1.42 0.63,0.63 0 0 1 0.5,-0.34 0.64,0.64 0 0 1 0.67,0.6 l 0.18,0.63 0.81,1.05 a 0.58,0.58 0 0 1 0.09,0.53 z m -3.36999998,-1.66 a 0.83,0.83 0 0 1 -0.49,-0.11 0.7,0.7 0 0 1 -0.18,-0.73 0.86,0.86 0 0 1 0.52,-0.61 0.79,0.79 0 0 1 0.25,0 0.49,0.49 0 0 1 0.45999998,0.16 1,1 0 0 1 0.05,0.89 0.79,0.79 0 0 1 -0.60999998,0.45 m 7.62999998,-2.32 a 1.12,1.12 0 0 1 -0.62,-0.14 0.52,0.52 0 0 1 -0.22,-0.62 0.67,0.67 0 0 1 0.59,-0.46 c 0.48,0 0.76,0.11 0.86,0.3 a 0.8,0.8 0 0 1 0,0.69 1.08,1.08 0 0 1 -0.58,0.23 m -6.44,-5.73 c 0,0.06 0,0.18 0.1,0.48 0.53,0.86 1.12,1.9 0.92,2.44 a 0.58,0.58 0 0 1 -0.39,0.33 c -0.12,0 -0.33,0.07 -0.38,0.21 -0.05,0.14 0.08,0.29 0.13,0.34 a 1.28,1.28 0 0 0 0.52,0.32 c 0.42,0.18 0.67,0.32 0.46,0.85 l 0.06,0.6 c 0.31,0.31 0.58,0.44 0.79,0.41 a 0.35,0.35 0 0 0 0.33,-0.26 0.79,0.79 0 0 0 -0.4,-0.84 c -0.22,-0.07 -0.33,-0.15 -0.35,-0.25 -0.02,-0.1 0.05,-0.27 0.4,-0.58 0.78,-0.87 0.81,-1 0.77,-1.13 v -0.06 h -0.13 a 1,1 0 0 0 -0.31,0.12 1.6,1.6 0 0 1 -0.29,0 c -0.39,0 -0.52,-0.15 -0.56,-0.82 0,-0.89 0.12,-1 0.51,-1.24 0.86,-0.53 1,-0.71 1,-0.86 0,-0.15 -0.19,-0.16 -0.6,-0.14 a 1.09,1.09 0 0 1 -0.25,0.06 0.17,0.17 0 0 1 -0.15,0 c -0.05,-0.06 -0.05,-0.18 0,-0.35 a 2.92,2.92 0 0 1 0.94,-1.8 c 0.15,-0.2 0.27,-0.38 0.22,-0.53 -0.05,-0.15 -0.27,-0.14 -0.42,-0.13 a 1.48,1.48 0 0 0 -1,0.49 1.35,1.35 0 0 0 -0.21,1 l -0.3,1.44 c -0.05,0.21 -0.13,0.47 -0.29,0.49 a 0.37,0.37 0 0 1 -0.27,-0.14 c -0.5,-0.44 -0.66,-0.5 -0.74,-0.48 h -0.05 z m 3.72,10.1 h -0.22 a 1.63,1.63 0 0 1 -0.8,-1.18 c -0.35,-1.89 -0.81,-2.41 -1.4,-2.63 -0.88,-0.36 -1,-0.78 -1,-1.06 0,-0.78 -0.32,-1 -0.7,-1.13 a 2,2 0 0 1 -1.58999998,-1.38 c -0.17,-0.64 -0.11,-0.9 0,-1 a 0.3,0.3 0 0 1 0.23,-0.11 1.93,1.93 0 0 1 0.91999998,0.29 0.4,0.4 0 0 0 0.21,0 0.27,0.27 0 0 0 0.23,-0.14 0.73,0.73 0 0 0 0,-0.64 l -0.63,-1.13 a 1.35,1.35 0 0 1 0.19,-1.59 c 0.35,-0.44 0.57,-0.55 0.67,-0.56 a 0.18,0.18 0 0 1 0.18,0.11 c 0.46,0.71 0.67,0.77 0.8,0.77 0.13,0 0.29,-0.49 0.3,-0.64 0.07,-1.13 0.32,-2.49 1.05,-2.56 a 1,1 0 0 1 0.4,0.07 0.81,0.81 0 0 0 0.62,0.21 1.8,1.8 0 0 0 1.1,-0.69 0.88,0.88 0 0 1 0.38,-0.16 c 0.13,0 0.29,0 0.42,0.43 a 2.32,2.32 0 0 1 -0.74,2.29 c -0.22,0.34 -0.29,0.53 -0.23,0.64 a 0.19,0.19 0 0 0 0.22,0.09 3,3 0 0 0 1,-0.43 0.57,0.57 0 0 1 0.29,-0.14 q 0.22,0 0.27,0.48 c 0.15,1 -0.55,1.78 -2.27,2.65 a 0.48,0.48 0 0 0 -0.34,0.48 0.31,0.31 0 0 0 0.36,0.28 1.12,1.12 0 0 0 0.33,-0.12 1.85,1.85 0 0 1 0.93,-0.44 0.47,0.47 0 0 1 0.53,0.28 c 0.09,0.26 0,0.79 -0.63,1.4 -0.37,0.59 -0.59,0.88 -1,1 -0.41,0.12 -0.39,0.18 -0.39,0.26 a 0.43,0.43 0 0 0 0.13,0.4 c 0.23,0.22 0.23,0.51 0,0.88 -0.63,0.55 -0.58,1.8 0.18,3.79 a 0.78,0.78 0 0 1 0.19,0.76 0.24,0.24 0 0 1 -0.21,0.15 m 4,14.45 a 0.56,0.56 0 0 1 -0.51,-0.19 0.39,0.39 0 0 1 -0.05,-0.38 4.59,4.59 0 0 0 0.27,-1.47 0.69,0.69 0 0 1 0.6,-0.71 0.59,0.59 0 0 1 0.57,0.33 1.63,1.63 0 0 0 1,1 c 0.73,0.38 1,0.73 0.92,0.86 -0.08,0.13 -0.13,0.12 -0.3,0.14 a 2.42,2.42 0 0 1 -0.27,0 1.7,1.7 0 0 0 -0.94,-0.24 0.68,0.68 0 0 0 -0.58,0.23 0.92,0.92 0 0 1 -0.68,0.4 m -1.4,-0.87 a 0.58,0.58 0 0 1 -0.63,-0.34 1,1 0 0 1 0.05,-0.94 0.72,0.72 0 0 1 0.53,-0.32 0.59,0.59 0 0 1 0.64,0.53 1,1 0 0 1 -0.07,0.75 0.73,0.73 0 0 1 -0.52,0.32 m 6,-5.23 c -0.12,0 -0.23,0 -0.35,0 -0.37,-0.06 -0.6,-0.24 -0.62,-0.53 a 0.7,0.7 0 0 1 0.46,-0.66 l 0.38,-0.07 a 0.74,0.74 0 0 1 0.59,0.16 0.87,0.87 0 0 1 0.18,0.68 c -0.07,0.25 -0.28,0.39 -0.64,0.42 m -0.92,3.91 c -0.13,0 -0.24,-0.1 -0.27,-0.28 a 3.68,3.68 0 0 0 -0.63,-2.22 0.79,0.79 0 0 1 -0.1,-0.78 0.45,0.45 0 0 1 0.38,-0.23 h 0.24 a 4.2,4.2 0 0 0 1.54,0.35 0.54,0.54 0 0 1 0.51,0.46 0.44,0.44 0 0 1 -0.22,0.48 1.25,1.25 0 0 0 -1,1.48 c 0,0.49 -0.23,0.72 -0.41,0.73 m -5.04,-3.2 c -0.17,0 -0.24,0.13 -0.25,0.21 a 0.25,0.25 0 0 0 0.28,0.25 c 0.74,0 1.37,0 1.68,0.32 a 0.33,0.33 0 0 0 0.29,0.22 v 0 l 0.14,-0.13 a 0.38,0.38 0 0 0 -0.07,-0.36 c -0.32,-0.41 -0.2,-0.89 0.34,-1.59 a 0.44,0.44 0 0 0 0.14,-0.42 v 0 h -0.17 a 0.55,0.55 0 0 0 -0.22,0.07 1.44,1.44 0 0 1 -0.38,0.08 0.7,0.7 0 0 1 -0.69,-0.28 2,2 0 0 1 0,-1.71 c 0.27,-0.83 0.59,-1.73 0.88,-2.58 0,-0.15 0.09,-0.34 0,-0.44 h -0.1 a 0.4,0.4 0 0 0 -0.32,0.29 c -0.22,0.47 -0.39,0.91 -0.54,1.3 -0.24,0.65 -0.43,1.16 -0.67,1.18 -0.24,0.02 -0.75,-0.65 -1.08,-1.17 a 2.15,2.15 0 0 1 0,-2.24 0.49,0.49 0 0 0 0,-0.41 h -0.14 a 0.29,0.29 0 0 0 -0.25,0.22 c -0.23,0.4 -0.37,0.58 -0.5,0.59 -0.13,0.01 -0.46,-0.27 -0.79,-0.67 a 0.34,0.34 0 0 0 -0.58,0.11 0.43,0.43 0 0 0 0.08,0.48 l 0.15,0.14 c 0.3,0.31 0.84,0.82 0.79,1 h -0.15 a 2.79,2.79 0 0 1 -0.81,-0.1 h -0.2 a 0.26,0.26 0 0 0 -0.25,0.19 c 0,0.11 0.07,0.26 0.35,0.3 1.63,0.15 2.84,1.42 2.76,2.14 0,0.25 -0.22,0.39 -0.56,0.41 a 2.84,2.84 0 0 1 -1.16,-0.19 h -0.19 a 0.26,0.26 0 0 0 -0.27,0.24 c 0,0.13 0.08,0.29 0.38,0.31 1.73,0.11 2.94,1.1 2.91,1.7 0,0.36 -0.44,0.53 -0.8,0.61 z m 5.55,4.72 a 0.91,0.91 0 0 1 -0.31,0 8.88,8.88 0 0 1 -2.76,-2.06 2.45,2.45 0 0 0 -1.82,-1.37 4.32,4.32 0 0 1 -3,-1.39 c -0.12,-0.18 -0.1,-0.27 -0.08,-0.3 0.02,-0.03 0.12,-0.1 0.29,-0.11 h 0.8 c 0.31,0 0.35,-0.15 0.36,-0.21 0.01,-0.06 -0.17,-0.35 -0.47,-0.43 -2.22,-0.38 -3.3,-1 -3.43,-2 -0.08,-0.23 -0.08,-0.37 0,-0.46 0.08,-0.09 0.18,-0.13 0.39,-0.15 a 3.2,3.2 0 0 1 0.44,0 1.6,1.6 0 0 0 0.22,0 c 0.08,0 0.25,0 0.29,-0.15 0.04,-0.15 0,-0.2 -0.45,-0.36 a 4.25,4.25 0 0 1 -1.86,-1.23 0.77,0.77 0 0 1 0,-0.69 0.49,0.49 0 0 1 0.4,-0.23 1,1 0 0 1 0.34,0 0.89,0.89 0 0 0 0.48,0.13 0.29,0.29 0 0 0 0.27,-0.18 c 0.08,-0.19 -0.05,-0.49 -0.35,-0.79 a 0.58,0.58 0 0 1 -0.07,-0.49 0.63,0.63 0 0 1 0.5,-0.2 1.91,1.91 0 0 0 0.45,0 1.29,1.29 0 0 0 0.82,-0.44 0.64,0.64 0 0 1 0.29,-0.12 c 0.2,0 0.37,0.11 0.54,0.39 0.17,0.28 0.35,0.7 0.64,0.67 0.13,0 0.31,-0.11 0.44,-0.53 0.13,-0.42 0.29,-0.8 0.54,-0.82 a 0.61,0.61 0 0 1 0.37,0.12 c 0.49,0.27 0.5,1.09 0,2.43 a 0.53,0.53 0 0 0 0.06,0.49 v 0 l 0.18,0.06 c 0.24,0 0.49,-0.33 0.63,-0.74 0.13,-1 0.43,-1.56 0.92,-1.59 a 1.1,1.1 0 0 1 0.35,0 1,1 0 0 1 0.73,0.5 c 0.35,0.61 0.25,1.76 -0.28,3.45 a 0.7,0.7 0 0 0 0,0.63 0.34,0.34 0 0 0 0.28,0.13 0.74,0.74 0 0 0 0.44,-0.26 0.94,0.94 0 0 1 0.57,-0.42 0.29,0.29 0 0 1 0.26,0.13 1.62,1.62 0 0 1 0.04,1.57 c -1.36,2.8 -0.82,4.93 1.63,6.33 a 0.54,0.54 0 0 1 0.21,0.55 0.3,0.3 0 0 1 -0.27,0.17 m 8.36,12.4 a 0.46,0.46 0 0 1 -0.49,-0.37 2.52,2.52 0 0 0 -0.22,-1.14 0.84,0.84 0 0 1 -0.08,-0.84 0.5,0.5 0 0 1 0.42,-0.27 0.92,0.92 0 0 1 0.51,0.14 1.55,1.55 0 0 0 1.24,0.45 1.45,1.45 0 0 1 1,0.24 c 0.17,0.15 0.18,0.25 0.17,0.3 a 3.06,3.06 0 0 1 -0.38,0.06 h -0.06 a 1.6,1.6 0 0 0 -1.47,0.89 0.87,0.87 0 0 1 -0.69,0.53 m 4.5,-2.69 c -0.16,0 -0.51,-0.23 -0.87,-0.81 a 1.77,1.77 0 0 0 -1,-0.9 0.6,0.6 0 0 1 -0.39,-0.68 0.53,0.53 0 0 1 0.5,-0.44 h 0.21 a 4,4 0 0 0 1,-0.26 1.06,1.06 0 0 1 0.34,-0.1 0.52,0.52 0 0 1 0.57,0.32 0.57,0.57 0 0 1 -0.15,0.6 0.91,0.91 0 0 0 -0.36,1 c 0.3,0.69 0.32,1.07 0.25,1.21 z m -6.18,2.39 h -0.28 a 0.74,0.74 0 0 1 -0.49,-0.68 0.8,0.8 0 0 1 0.3,-0.68 1.85,1.85 0 0 1 0.43,-0.13 c 0.4,0 0.63,0.26 0.73,0.87 a 0.55,0.55 0 0 1 -0.13,0.4 0.81,0.81 0 0 1 -0.56,0.22 m 4.59,-5.84 a 0.53,0.53 0 0 1 -0.52,-0.37 0.51,0.51 0 0 1 0.13,-0.5 1.4,1.4 0 0 1 0.76,-0.33 0.67,0.67 0 0 1 0.55,0.18 0.62,0.62 0 0 1 0.16,0.48 1.2,1.2 0 0 1 -1,0.54 z m -5.68,1.05 c 0.47,0 0.76,0.06 0.91,0.29 a 1.3,1.3 0 0 1 0,0.27 c 0,0.23 0.07,0.55 0.38,0.54 l 1.55,-0.1 c 0.17,0 0.25,0 0.3,-0.11 0.05,-0.11 0,-0.21 -0.07,-0.33 -0.31,-0.63 -0.5,-0.73 -0.8,-0.7 h -0.17 a 0.86,0.86 0 0 1 -0.46,-0.09 c -0.67,-0.36 -0.95,-1.44 -0.85,-3.3 a 0.52,0.52 0 0 0 -0.06,-0.45 h -0.11 c -0.15,0 -0.23,0.13 -0.28,0.45 l -0.14,0.91 c 0,0.39 -0.19,0.4 -0.24,0.4 a 0.52,0.52 0 0 1 -0.3,-0.06 3.35,3.35 0 0 1 -1.55,-2.32 c 0,-0.4 0.11,-2.32 -0.59,-1.13 -0.25,0.17 -0.66,-0.57 -0.91,-1.14 0,-0.2 -0.16,-0.32 -0.29,-0.31 a 0.41,0.41 0 0 0 -0.2,0.42 0.54,0.54 0 0 1 -0.2,0.53 c -0.17,0.07 -0.33,0.17 -0.32,0.3 0.01,0.13 0.12,0.17 0.38,0.22 0.62,0.11 1.19,0.83 1.68,2.13 0.08,0.17 0.07,0.23 0.06,0.25 l -1.85,0.06 h -0.25 c -0.24,0 -0.28,0.13 -0.28,0.19 0,0.06 0.24,0.36 0.5,0.38 l 1.88,0.26 a 1.61,1.61 0 0 1 1.48,1 0.63,0.63 0 0 1 0.14,0.52 c 0,0.08 -0.08,0.13 -0.2,0.16 a 13.87,13.87 0 0 1 -2.1,0.54 c -0.29,0 -0.42,0.11 -0.44,0.23 -0.02,0.12 0.12,0.23 0.51,0.36 a 2,2 0 0 0 0.77,0.06 9.32,9.32 0 0 0 1.07,-0.19 8.31,8.31 0 0 1 1,-0.18 m 6.23,3.23 a 0.58,0.58 0 0 1 -0.37,-0.12 5.4,5.4 0 0 0 -4.1,-1.28 8.71,8.71 0 0 0 -1.76,0.33 0.33,0.33 0 0 1 -0.24,-0.15 0.75,0.75 0 0 1 0,-0.56 c 0,-0.36 -0.15,-0.51 -0.44,-0.48 a 1,1 0 0 0 -0.28,0 7.54,7.54 0 0 1 -0.8,0.1 c -1.74,0.14 -2.83,-0.31 -3.53,-1.47 a 0.47,0.47 0 0 1 0,-0.33 0.48,0.48 0 0 1 0.32,-0.14 l 2.39,-0.3 c 0.26,0 0.34,-0.13 0.36,-0.23 0.02,-0.1 -0.08,-0.31 -0.36,-0.38 -2.41,-0.38 -3.86,-1.1 -4.3,-2.13 a 0.42,0.42 0 0 1 0,-0.37 c 0,-0.08 0.18,-0.14 0.4,-0.15 l 1.83,0.17 c 0.3,0 0.43,-0.07 0.46,-0.18 0.03,-0.11 -0.1,-0.26 -0.35,-0.42 l -1.83,-1 a 0.47,0.47 0 0 1 -0.21,-0.49 c 0.07,-0.17 0.3,-0.29 0.63,-0.32 0.33,-0.03 0.54,0 0.72,0 a 0.78,0.78 0 0 0 0.58,-0.22 c 0.2,-0.22 0.19,-0.58 0.18,-1.18 v -0.56 c 0,-0.41 0.11,-0.65 0.24,-0.67 0.13,-0.02 0.37,0.1 1,0.91 0.28,0.35 0.47,0.54 0.65,0.52 0.18,-0.02 0.33,-0.39 0.46,-1 0.08,-0.28 0.22,-0.3 0.26,-0.3 a 0.74,0.74 0 0 1 0.43,0.17 c 0.74,0.42 0.75,2.31 0.67,4.1 a 0.39,0.39 0 0 0 0.1,0.35 0.35,0.35 0 0 0 0.27,0.12 c 0.1,0 0.33,-0.08 0.4,-0.55 l 0.25,-1.17 c 0.09,-0.32 0.23,-0.49 0.44,-0.51 a 1.09,1.09 0 0 1 0.67,0.29 c 0.7,0.62 0.9,1.65 0.82,4.08 a 0.57,0.57 0 0 0 0.14,0.43 0.39,0.39 0 0 0 0.26,0.09 c 0.17,0 0.4,-0.18 0.54,-0.57 0.07,-0.16 0.16,-0.27 0.24,-0.28 0.08,-0.01 0.21,0.1 0.3,0.41 a 6.39,6.39 0 0 0 2.81,4.71 0.45,0.45 0 0 1 0.16,0.5 0.3,0.3 0 0 1 -0.26,0.2 m 10.22,3.69 c 0.68,0 1.09,0.14 1.21,0.38 a 0.76,0.76 0 0 1 -0.13,0.69 c -0.16,0.28 -0.13,0.43 -0.08,0.53 a 0.29,0.29 0 0 0 0.26,0.11 c 0.32,0 0.76,-0.43 1,-1.15 0,-0.29 0.31,-0.48 0.87,-0.61 a 0.7,0.7 0 0 0 0.38,-0.78 c -0.05,-0.23 -0.19,-0.39 -0.34,-0.37 a 0.33,0.33 0 0 0 -0.21,0.12 1.72,1.72 0 0 1 -0.85,0.47 h -0.3 a 1.44,1.44 0 0 1 -1.44,-0.67 l -0.88,-1.45 c -0.12,-0.17 -0.24,-0.26 -0.35,-0.25 h -0.05 l -0.09,0.09 a 0.6,0.6 0 0 0 0,0.51 l 0.44,0.87 a 0.44,0.44 0 0 1 0.06,0.35 0.53,0.53 0 0 1 -0.36,0.17 v 0 c -1.27,0.11 -2.33,-0.52 -3.33,-1.88 a 0.53,0.53 0 0 0 -0.41,-0.28 v 0 l -0.12,0.12 a 0.48,0.48 0 0 0 0.11,0.43 l 0.45,0.66 c 0.15,0.2 0.14,0.28 0.13,0.31 -0.01,0.03 -0.1,0.09 -0.23,0.11 a 5,5 0 0 1 -3.3,-1.25 0.78,0.78 0 0 0 -0.39,-0.12 c -0.16,0.14 -0.16,0.23 -0.1,0.37 l 0.16,0.4 c 0,0.09 0.06,0.19 0,0.25 -0.06,0.06 -0.13,0.09 -0.27,0.1 l -1.82,0.2 c -0.26,0 -0.43,0.12 -0.43,0.26 0,0.14 0.25,0.25 0.67,0.24 a 11.68,11.68 0 0 1 4.13,0.2 c 0.09,0 0.2,0 0.23,0.12 a 0.47,0.47 0 0 1 -0.08,0.27 l -0.67,0.69 c -0.18,0.16 -0.26,0.32 -0.22,0.44 0.04,0.12 0.07,0.14 0.25,0.12 a 0.84,0.84 0 0 0 0.24,-0.06 6.09,6.09 0 0 1 2.5,-1.07 1.83,1.83 0 0 1 0.67,0.06 0.4,0.4 0 0 1 0.36,0.25 0.44,0.44 0 0 1 0,0.44 l -0.36,0.8 c -0.06,0.23 -0.09,0.39 0,0.48 h 0.16 a 0.64,0.64 0 0 0 0.36,-0.19 c 0.6,-0.68 1.36,-1.47 2.11,-1.52 z m -0.36,3.63 c -0.26,0 -0.44,-0.09 -0.51,-0.22 a 0.42,0.42 0 0 1 0.06,-0.38 l 0.65,-1.03 a 0.44,0.44 0 0 0 0,-0.4 0.33,0.33 0 0 0 -0.28,-0.11 1.27,1.27 0 0 0 -0.68,0.39 4.15,4.15 0 0 1 -2.75,1.47 4.85,4.85 0 0 1 -0.76,0 0.72,0.72 0 0 1 -0.48,-0.34 0.69,0.69 0 0 1 0.16,-0.55 l 0.82,-1 c 0.09,-0.23 0.1,-0.36 0,-0.45 v 0 h -0.18 a 0.92,0.92 0 0 0 -0.26,0.07 l -2,1 a 2,2 0 0 1 -0.62,0.16 1.26,1.26 0 0 1 -1.08,-0.42 c -0.11,-0.11 -0.17,-0.21 -0.15,-0.29 l 0.13,-0.15 a 2.84,2.84 0 0 0 0.88,-0.88 c 0.11,-0.16 0.14,-0.28 0.1,-0.38 -0.04,-0.1 -0.2,-0.2 -0.48,-0.2 -0.72,0.11 -1.37,0.18 -2,0.23 a 4,4 0 0 1 -2.33,-0.21 0.56,0.56 0 0 1 -0.28,-0.49 c 0,-0.21 0.23,-0.43 0.65,-0.7 l 2,-0.78 c 0.21,-0.09 0.32,-0.2 0.35,-0.33 a 0.38,0.38 0 0 0 -0.17,-0.38 0.44,0.44 0 0 1 -0.11,-0.32 0.56,0.56 0 0 1 0.28,-0.29 1.55,1.55 0 0 1 0.75,-0.27 3.36,3.36 0 0 1 2.22,1 0.9,0.9 0 0 0 0.35,0.14 c 0.18,-0.15 0.18,-0.26 0.11,-0.48 l -0.24,-0.79 c -0.07,-0.2 -0.08,-0.35 0,-0.44 a 0.42,0.42 0 0 1 0.34,-0.15 c 1,-0.08 2,0.48 3.09,1.83 0.2,0.21 0.38,0.32 0.52,0.3 h 0.06 l 0.14,-0.11 a 0.71,0.71 0 0 0 -0.13,-0.6 l -0.35,-0.8 a 0.66,0.66 0 0 1 0.06,-0.49 0.74,0.74 0 0 1 0.52,-0.27 3.64,3.64 0 0 1 0.44,-0.07 c 0.72,-0.06 1.14,0.15 1.29,0.63 l 1,1.71 a 0.65,0.65 0 0 0 0.55,0.35 c 0.2,0 0.4,-0.17 0.61,-0.5 0.21,-0.33 0.24,-0.35 0.34,-0.35 0.32,0 0.85,0.3 1.57,1 a 1.17,1.17 0 0 0 1,0.38 1.81,1.81 0 0 0 0.62,-0.17 7.32,7.32 0 0 1 2.48,-0.67 4.4,4.4 0 0 1 1.09,0 c 0.28,0.09 0.43,0.29 0.38,0.53 -0.05,0.24 -0.42,0.63 -1.1,0.68 a 1.72,1.72 0 0 1 -0.33,0 0.79,0.79 0 0 0 -0.36,0 7.48,7.48 0 0 0 -2.83,1.45 1.43,1.43 0 0 1 -0.88,0.36 1.34,1.34 0 0 0 -0.51,0.14 c -0.29,0 -0.63,0.44 -1.06,1 a 4.48,4.48 0 0 1 -2.7,2 m 19.09,1.4 a 1.69,1.69 0 0 1 -0.45,0 1.65,1.65 0 0 1 -0.83,-0.52 4.13,4.13 0 0 0 -1.1,-0.78 c -0.31,-0.14 -0.6,-0.26 -0.89,-0.37 a 11.14,11.14 0 0 1 -1.15,-0.5 0.51,0.51 0 0 1 -0.31,-0.35 c -0.06,-0.24 0.17,-0.56 0.39,-0.84 0.22,-0.28 0.19,-0.21 0.29,-0.22 a 0.61,0.61 0 0 1 0.31,0.11 6.91,6.91 0 0 0 1.33,0.69 6.39,6.39 0 0 1 3.13,2.31 0.25,0.25 0 0 1 0,0.21 0.23,0.23 0 0 1 -0.16,0.14 2.46,2.46 0 0 1 -0.6,0.12 m -9.68,1.11 a 0.68,0.68 0 0 1 -0.29,0 l -0.55,-0.48 c -0.25,-0.3 -0.21,-0.59 0.18,-1 a 10.57,10.57 0 0 1 1.79,-1.4 12.7,12.7 0 0 0 1.89,-1.5 1,1 0 0 1 0.7,-0.44 h 0.17 l 0.47,-0.06 c 0.22,0 0.48,0 0.54,0.07 0.06,0.07 -0.22,0.59 -0.31,0.75 a 8.51,8.51 0 0 1 -2.32,2 5.32,5.32 0 0 0 -1.93,1.8 c -0.11,0.28 -0.24,0.33 -0.34,0.33 m -3.84,-0.71 h -0.16 c -0.07,-0.06 -0.09,-0.2 -0.07,-0.39 0.09,-1.41 1.4,-2.27 2.8,-3.18 0.45,-0.3 0.9,-0.6 1.34,-0.93 a 1,1 0 0 1 0.41,-0.2 0.25,0.25 0 0 1 0.21,0.07 l 0.69,0.41 c 0.1,0.06 0.17,0.13 0.17,0.18 a 0.34,0.34 0 0 1 -0.14,0.23 9.21,9.21 0 0 1 -1.44,1 5.55,5.55 0 0 0 -2.22,1.93 2.4,2.4 0 0 1 -1.56,0.94 z m 10.22,0.8 a 0.58,0.58 0 0 1 -0.43,-0.16 22.46,22.46 0 0 0 -2.55,-1.26 0.52,0.52 0 0 1 -0.23,-0.61 0.9,0.9 0 0 1 0.75,-0.66 h 0.21 a 7.66,7.66 0 0 0 1.42,0.67 5.49,5.49 0 0 1 1.45,0.74 0.5,0.5 0 0 1 0.25,0.29 0.35,0.35 0 0 1 -0.1,0.24 l -0.4,0.54 a 0.63,0.63 0 0 1 -0.37,0.19 m 2.1,-4.88 c -0.06,0 -0.09,0 -0.18,-0.12 a 4.85,4.85 0 0 0 -2.19,-1.17 c -0.11,0 -0.21,0 -0.23,-0.3 -0.07,-0.55 0,-0.71 0,-0.76 a 5.69,5.69 0 0 1 3.45,1.49 l 0.1,0.18 -0.11,0.13 -0.67,0.48 z m -11.15,-0.17 a 0.92,0.92 0 0 1 -0.28,0 l -0.61,-0.44 a 0.26,0.26 0 0 1 0.06,-0.27 6,6 0 0 1 3.25,-1.5 v 0 a 0.4,0.4 0 0 1 0.42,0.37 0.67,0.67 0 0 1 -0.4,0.74 4,4 0 0 0 -1.93,0.8 0.76,0.76 0 0 1 -0.53,0.32 m 12.51,1.26 a 0.51,0.51 0 0 1 -0.47,-0.18 0.55,0.55 0 0 1 -0.06,-0.49 0.83,0.83 0 0 1 0.67,-0.56 h 0.22 a 0.52,0.52 0 0 1 0.44,0.43 0.82,0.82 0 0 1 -0.43,0.68 0.8,0.8 0 0 1 -0.37,0.12 m -13.97,-0.19 a 2.25,2.25 0 0 1 -0.36,0 0.53,0.53 0 0 1 -0.43,-0.54 0.48,0.48 0 0 1 0.34,-0.47 l 0.31,-0.06 a 0.7,0.7 0 0 1 0.62,0.22 0.68,0.68 0 0 1 0,0.64 0.63,0.63 0 0 1 -0.49,0.22 m 8.64,-1.89 c -0.33,0 -0.67,-0.11 -0.68,-0.45 v -2.38 a 1.1,1.1 0 0 1 0.21,-0.82 0.7,0.7 0 0 1 0.44,-0.23 0.78,0.78 0 0 1 0.78,0.85 v 2.23 a 0.71,0.71 0 0 1 -0.16,0.52 0.77,0.77 0 0 1 -0.55,0.25 m -2.89,0.15 a 0.56,0.56 0 0 1 -0.61,-0.39 5.26,5.26 0 0 1 0,-2.92 0.64,0.64 0 0 1 0.57,-0.54 0.68,0.68 0 0 1 0.67,0.49 9.29,9.29 0 0 1 0,2.79 0.78,0.78 0 0 1 -0.68,0.57 m -18.25,-20.67 c 0.47,0.19 0.9,0.4 1.28,0.58 a 5.94,5.94 0 0 0 1.65,0.63 h 0.2 c 0.47,0 0.78,-0.18 0.85,-0.47 a 0.73,0.73 0 0 0 -0.61,-0.77 l -0.06,0.08 a 0.52,0.52 0 0 1 -0.5,0.35 1.36,1.36 0 0 1 -0.42,-0.08 43.81,43.81 0 0 1 -6,-3 0.75,0.75 0 0 0 -0.3,-0.08 c -0.12,0 -0.19,0 -0.21,0.11 l 0.07,0.25 a 29,29 0 0 0 4,2.37 m -0.51,1.85 c 0.1,-0.52 -0.54,-1.77 -3.63,-3.21 h -0.17 a 0.15,0.15 0 0 0 -0.17,0.09 0.35,0.35 0 0 0 0.14,0.34 c 0.19,0.13 0.37,0.27 0.57,0.39 l 0.3,0.22 a 8.33,8.33 0 0 1 1.78,1.39 0.45,0.45 0 0 1 0.21,0.38 0.36,0.36 0 0 1 -0.15,0.28 c -0.1,0.18 0,0.23 0,0.25 a 1.3,1.3 0 0 0 0.69,0.21 0.42,0.42 0 0 0 0.45,-0.31 m 6.35,3.96 c -0.42,-1.26 -3,-2.36 -6.61,-2.81 -0.23,0 -0.38,0.11 -0.4,0.25 -0.02,0.14 0.08,0.32 0.34,0.41 2.83,0.61 4.51,1.21 5.47,1.93 0.29,0.24 0.42,0.41 0.42,0.59 a 0.55,0.55 0 0 1 -0.24,0.39 0.48,0.48 0 0 0 -0.22,0.39 c 0,0.35 0.14,0.42 0.36,0.41 a 1.55,1.55 0 0 0 0.34,-0.05 1.43,1.43 0 0 0 0.54,-1.51 m 26.7,3.5 -2.41,0.59 a 0.39,0.39 0 0 0 -0.13,0.43 0.45,0.45 0 0 0 0.44,0.37 h 0.13 l 2.26,-0.55 a 0.34,0.34 0 0 0 0.2,-0.4 c -0.06,-0.19 -0.21,-0.41 -0.44,-0.41 m 0.22,-1.54 a 0.36,0.36 0 0 1 -0.14,-0.35 c 0,-0.16 0.2,-0.27 0.52,-0.36 l 2.63,-0.79 a 0.22,0.22 0 0 0 0.14,-0.26 c 0,-0.1 -0.1,-0.34 -0.55,-0.33 v 0 c -2.49,0.43 -3.81,1 -3.94,1.6 -0.08,0.37 0.29,0.83 1,1.3 a 0.52,0.52 0 0 0 0.33,0.08 0.44,0.44 0 0 0 0.41,-0.19 c 0,-0.09 0,-0.23 -0.12,-0.33 z m -0.14,-2.25 a 5.78,5.78 0 0 0 2.86,-0.62 c 0.12,-0.08 0.26,-0.19 0.22,-0.34 a 0.47,0.47 0 0 0 -0.45,-0.25 0.61,0.61 0 0 0 -0.28,0.07 12.63,12.63 0 0 1 -2.94,0.42 17.22,17.22 0 0 1 -1.93,-0.08 c -0.27,0 -0.42,0.16 -0.44,0.29 -0.02,0.13 0.16,0.35 0.61,0.42 a 23.23,23.23 0 0 0 2.35,0.1 m 8.16,-1.48 a 5.73,5.73 0 0 0 -2.3,-0.52 2.26,2.26 0 0 0 -1.52,0.5 1.46,1.46 0 0 0 -0.47,1 c 0,0.64 0.53,1.32 1.64,1.3 a 5,5 0 0 0 2.43,-0.84 0.41,0.41 0 0 0 0.13,-0.19 c 0,0 0,-0.06 -0.21,-0.1 a 2.54,2.54 0 0 1 -0.48,-0.09 5.51,5.51 0 0 0 -1.41,-0.17 c -0.34,0 -0.49,0.08 -0.6,0.28 a 0.41,0.41 0 0 1 -0.33,0.18 0.59,0.59 0 0 1 -0.54,-0.44 c 0,-0.09 0,-0.42 0.48,-0.62 a 2.39,2.39 0 0 1 0.77,-0.13 3.77,3.77 0 0 1 1.44,0.29 2.92,2.92 0 0 0 0.51,0 c 0.44,0 0.64,-0.14 0.67,-0.22 0.03,-0.08 -0.06,-0.21 -0.21,-0.32 m -49.2,-8.61 c -0.1,0 -0.27,0.09 -0.27,0.2 0,0.11 0.34,0.43 0.91,0.55 a 2.86,2.86 0 0 1 2,0.62 c 0.34,0.31 0.29,0.56 0.25,0.65 a 0.49,0.49 0 0 1 -0.49,0.35 0.43,0.43 0 0 1 -0.43,-0.33 c 0,-0.17 -0.12,-0.31 -0.45,-0.44 a 4.62,4.62 0 0 0 -1.2,-0.31 4.14,4.14 0 0 1 -0.45,-0.07 h -0.17 a 0.45,0.45 0 0 0 0,0.16 c 1.19,1.54 2.12,1.76 2.56,1.76 a 1,1 0 0 0 0.94,-0.55 1.35,1.35 0 0 0 -0.06,-1.33 c -0.48,-0.8 -1.62,-1.23 -3.19,-1.21 m 11.29,11.64 a 3.43,3.43 0 0 0 -2.06,1 c -0.09,0.13 -0.12,0.24 -0.09,0.3 0.03,0.06 0.14,0.09 0.28,0.09 a 1.5,1.5 0 0 0 0.6,-0.16 2.42,2.42 0 0 1 1.47,-0.63 h 0.21 c 0.43,0.06 0.56,0.3 0.55,0.51 a 0.44,0.44 0 0 1 -0.41,0.43 0.36,0.36 0 0 1 -0.26,-0.1 0.34,0.34 0 0 0 -0.28,-0.12 0.66,0.66 0 0 0 -0.23,0 3.45,3.45 0 0 0 -1,0.43 h -0.1 a 1,1 0 0 1 -0.23,0.12 l -0.12,0.09 c 0,0 0,0.05 0.12,0.13 a 5.31,5.31 0 0 0 1.54,0.28 1.47,1.47 0 0 0 1.32,-0.62 1.16,1.16 0 0 0 -0.05,-1.15 1.41,1.41 0 0 0 -1.28,-0.67 m 5.39,1.6 a 14.3,14.3 0 0 0 -3,-0.51 0.24,0.24 0 0 0 -0.22,0.21 0.3,0.3 0 0 0 0.24,0.32 12.08,12.08 0 0 1 3,1.09 h 0.14 c 0,0 0,0 0.07,-0.18 v -0.65 c -0.07,-0.2 -0.08,-0.21 -0.28,-0.31 m 0.24,-5.82 a 9.41,9.41 0 0 1 -3.09,-2.79 0.47,0.47 0 0 0 -0.34,-0.27 0.24,0.24 0 0 0 -0.2,0.13 0.52,0.52 0 0 0 0,0.47 6,6 0 0 0 3.64,2.92 c 0.14,0 0.23,0 0.25,-0.12 0.02,-0.12 -0.06,-0.23 -0.22,-0.34 m 27.4,7.11 a 0.84,0.84 0 0 1 -0.52,0.2 0.92,0.92 0 0 1 -0.81,-0.49 0.94,0.94 0 0 1 0.17,-1 0.76,0.76 0 0 1 0.5,-0.19 0.93,0.93 0 0 1 0.84,0.54 0.86,0.86 0 0 1 -0.18,1 m -0.69,-2.22 a 1.57,1.57 0 0 0 -1.37,0.78 1.74,1.74 0 0 0 0.31,1.83 1.68,1.68 0 0 0 1.29,0.61 1.64,1.64 0 0 0 1.45,-1 1.51,1.51 0 0 0 -0.41,-1.66 1.63,1.63 0 0 0 -1.27,-0.57 m -38.01,-3.89 a 0.77,0.77 0 0 1 -1.2,-0.24 0.9,0.9 0 0 1 0.16,-1 0.7,0.7 0 0 1 0.47,-0.19 0.84,0.84 0 0 1 0.57,1.42 m -0.57,-2.04 a 1.43,1.43 0 0 0 -1.25,0.73 1.72,1.72 0 0 0 0.22,1.74 1.49,1.49 0 0 0 1.13,0.57 v 0 a 1.52,1.52 0 0 0 1.33,-0.98 1.43,1.43 0 0 0 -0.32,-1.58 1.37,1.37 0 0 0 -1.11,-0.48 m 7.67,-3.28 a 0.78,0.78 0 0 1 -0.51,0.18 0.77,0.77 0 0 1 -0.72,-0.43 0.92,0.92 0 0 1 0.16,-1 0.64,0.64 0 0 1 0.47,-0.19 0.84,0.84 0 0 1 0.76,0.48 0.86,0.86 0 0 1 -0.16,0.94 m 0.88,0 a 1.59,1.59 0 0 0 -1.47,-2.1 1.47,1.47 0 0 0 -1.28,0.74 1.68,1.68 0 0 0 0.24,1.74 1.49,1.49 0 0 0 1.15,0.57 1.57,1.57 0 0 0 1.36,-1 m -21.01,-23.33 a 0.56,0.56 0 0 1 0.47,0.57 0.4,0.4 0 0 0 0.37,0.3 0.35,0.35 0 0 0 0.33,-0.24 0.5,0.5 0 0 0 -0.1,-0.55 0.56,0.56 0 0 1 0,-0.63 0.86,0.86 0 0 0 -0.13,-0.7 0.67,0.67 0 0 0 -0.53,-0.19 1.07,1.07 0 0 0 -1,0.61 c -0.09,0.36 0.28,0.65 0.57,0.83 m 0.27,2.17 c -0.25,0 -0.63,0.43 -0.71,0.73 0,0.14 0,0.19 0.06,0.23 a 1.47,1.47 0 0 0 1,0.47 0.39,0.39 0 0 0 0.37,-0.2 c 0.11,-0.25 -0.1,-0.67 -0.54,-1.15 z m 1.64,0.51 a 1.51,1.51 0 0 0 0.07,-1.19 0.33,0.33 0 0 0 -0.06,-0.21 0.47,0.47 0 0 0 -0.32,-0.1 1.07,1.07 0 0 0 -0.87,0.45 c -0.06,0.11 0,0.22 0.07,0.36 0.34,0.6 0.7,0.81 0.9,0.8 a 0.24,0.24 0 0 0 0.21,-0.11 m 1.17,-0.17 a 0.64,0.64 0 0 0 0.43,-0.28 2.73,2.73 0 0 0 0.23,-0.84 0.33,0.33 0 0 0 -0.23,-0.4 1.28,1.28 0 0 0 -0.51,-0.09 1.65,1.65 0 0 0 -0.38,0 c -0.15,0 -0.2,0.22 -0.17,0.51 0.08,0.61 0.33,1 0.63,1 m -0.32,1.27 c 0.22,0 0.74,0.07 1.06,0.92 0.32,0.85 0.35,1.29 0.15,1.58 a 0.61,0.61 0 0 1 -0.56,0.27 h -0.18 a 2.31,2.31 0 0 1 -1.32,-1.77 0.91,0.91 0 0 1 0.86,-0.91 m -1.31,0.24 a 2.05,2.05 0 0 0 0.14,1.66 3.11,3.11 0 0 0 2,1.61 h 0.21 a 1.13,1.13 0 0 0 1,-0.64 2.62,2.62 0 0 0 -0.33,-2.5 2.17,2.17 0 0 0 -1.67,-1.08 1.69,1.69 0 0 0 -1.38,0.94 m 6.41,11.58 a 0.7,0.7 0 0 1 0.25,0 5.35,5.35 0 0 0 1.52,0.27 2.62,2.62 0 0 0 0.52,-0.07 0.31,0.31 0 0 0 0.21,-0.32 0.28,0.28 0 0 0 -0.3,-0.2 8.47,8.47 0 0 1 -6.19,-4.09 1.57,1.57 0 0 1 0.08,-1.7 5.3,5.3 0 0 1 2.16,-1.78 1.8,1.8 0 0 1 0.84,-0.24 1.31,1.31 0 0 1 0.91,0.35 10.81,10.81 0 0 1 3.07,4.88 c 0,0.33 0.19,0.49 0.32,0.48 0.13,-0.01 0.28,-0.12 0.34,-0.39 l -0.2,-1 a 0.91,0.91 0 0 1 0.06,-0.79 c 0.64,-0.85 0.67,-1.5 0.12,-2 v 0 c -0.21,0.58 -0.43,0.85 -0.71,0.85 -0.28,0 -0.43,-0.17 -0.63,-0.52 a 8.29,8.29 0 0 0 -2.09,-2.21 c -0.33,-0.2 -0.48,-0.43 -0.4,-0.67 -0.16,-1 -0.48,-1.06 -0.94,-1.14 h -0.09 v 0 c 0.24,0.74 -0.09,1.26 -1,1.55 a 5.44,5.44 0 0 0 -3.06,2.84 c -0.14,0.4 -0.38,0.49 -0.57,0.5 a 1.15,1.15 0 0 1 -0.69,-0.33 v 0 0.15 a 1.25,1.25 0 0 0 0.83,1.25 0.64,0.64 0 0 1 0.71,0.43 3.4,3.4 0 0 0 0.77,1 c 0.21,0.2 0.3,0.36 0.25,0.52 -0.05,0.16 -0.29,0.3 -0.78,0.35 l 0.05,0.06 a 1.59,1.59 0 0 0 1.28,0.46 h 0.22 a 0.68,0.68 0 0 1 0.49,0.2 l 0.94,0.57 c 0.25,0.14 0.37,0.29 0.37,0.45 0,0.16 -0.17,0.39 -0.55,0.6 v 0 0 a 1.42,1.42 0 0 0 0.74,0.25 1.08,1.08 0 0 0 0.79,-0.41 0.45,0.45 0 0 1 0.39,-0.23 m 9.25,-5.67 a 3.48,3.48 0 0 1 -0.69,0.08 c -0.11,0 -0.18,0 -0.21,0.07 -0.03,0.07 -0.06,0.15 0,0.5 0.06,0.35 0.46,0.85 0.76,0.85 0.12,0 0.23,-0.11 0.34,-0.3 a 0.91,0.91 0 0 0 0.09,-0.41 v -0.42 c 0,-0.26 0,-0.34 -0.17,-0.41 z m 1.91,0.16 -0.67,-0.23 h -0.16 -0.14 c 0,0 -0.06,0.1 0,0.3 v 0.88 c 0.1,0.18 0.21,0.25 0.34,0.25 a 0.71,0.71 0 0 0 0.4,-0.15 4.22,4.22 0 0 0 0.42,-0.51 0.48,0.48 0 0 0 0.09,-0.39 c 0,-0.07 -0.13,-0.13 -0.28,-0.18 m 0.93,2.03 a 1.78,1.78 0 0 0 0.91,-0.47 0.37,0.37 0 0 0 -0.14,-0.53 l -0.53,-0.39 h -0.16 c -0.11,0 -0.22,0.1 -0.32,0.26 a 1.23,1.23 0 0 0 -0.26,0.81 c 0.07,0.26 0.19,0.37 0.41,0.37 z m -3.31,3.03 v 0 a 2.49,2.49 0 0 1 0.08,-2.24 1,1 0 0 1 0.75,-0.37 0.91,0.91 0 0 1 0.75,0.36 1.53,1.53 0 0 1 0.13,1.35 c -0.23,0.82 -0.55,1.23 -1,1.23 a 1,1 0 0 1 -0.7,-0.3 m 2.63,-0.65 a 2.2,2.2 0 0 0 -0.38,-1.94 1.88,1.88 0 0 0 -1.46,-0.66 1.46,1.46 0 0 0 -1,0.42 2.37,2.37 0 0 0 -0.54,1.83 3,3 0 0 0 0.91,2.07 2.14,2.14 0 0 0 0.67,0.1 c 0.78,0 1.38,-0.63 1.78,-1.85 m -8.36,2.5 c 0,0.79 0,1.54 -0.73,1.66 v 0 0 a 1.89,1.89 0 0 0 0.9,0.26 1.4,1.4 0 0 0 0.65,-0.19 0.48,0.48 0 0 1 0.36,-0.16 0.38,0.38 0 0 1 0.25,0.07 l 2.21,1 c 0.3,0.13 0.44,0.28 0.46,0.46 0.02,0.18 -0.1,0.34 -0.39,0.54 a 1.71,1.71 0 0 0 0.65,0.13 1.65,1.65 0 0 0 1,-0.38 0.61,0.61 0 0 1 0.45,-0.17 0.65,0.65 0 0 1 0.21,0 c 0.37,0 0.75,0 1.14,0 a 10.46,10.46 0 0 0 2.69,-0.33 0.71,0.71 0 0 0 0.31,-0.76 0.26,0.26 0 0 0 -0.26,-0.19 h -0.17 a 10,10 0 0 1 -2.46,0.41 10.09,10.09 0 0 1 -5.67,-1.87 c -0.42,-0.15 -0.58,-0.62 -0.44,-1.41 a 8.38,8.38 0 0 1 1.37,-2.75 0.6,0.6 0 0 1 0.53,-0.32 v 0 a 3.44,3.44 0 0 0 0.62,0 c 0.69,0 0.78,-0.29 0.78,-0.53 0,-0.08 0,-0.09 0,-0.09 h -0.08 -0.21 a 1.94,1.94 0 0 1 -1.31,-0.62 1.22,1.22 0 0 0 -0.78,-0.45 h -0.12 a 0.93,0.93 0 0 1 0.25,0.58 0.94,0.94 0 0 1 -0.35,0.66 6.37,6.37 0 0 0 -1.86,4.45 m 10.76,0.02 a 0.28,0.28 0 0 0 0.21,-0.14 0.33,0.33 0 0 0 0,-0.29 4.24,4.24 0 0 0 -1.62,-1.61 h -0.2 a 0.21,0.21 0 0 0 -0.2,0.13 0.31,0.31 0 0 0 0.07,0.32 6.6,6.6 0 0 1 1.6,1.58 z m 6.1,7.06 c 0,0.25 -0.17,0.45 -0.6,0.62 h 0.12 a 1.64,1.64 0 0 0 0.42,0.06 1.87,1.87 0 0 0 1,-0.42 2.12,2.12 0 0 1 1.2,-0.45 2.67,2.67 0 0 1 1,0.2 c 0.38,0.17 0.57,0.34 0.61,0.55 a 0.52,0.52 0 0 1 -0.19,0.47 v 0 0 h 0.28 c 0.6,0 1,-0.34 1.29,-1.06 a 2,2 0 0 1 1.23,-0.83 1.53,1.53 0 0 0 0.42,-1 0.3,0.3 0 0 0 -0.14,-0.34 0.78,0.78 0 0 0 -0.19,0.06 7.31,7.31 0 0 1 -3.52,0.93 18.65,18.65 0 0 1 -7.07,-1.79 1.38,1.38 0 0 1 -0.8,-1.62 l 0.9,-2.65 a 2.23,2.23 0 0 1 2.09,-1.3 c 1.45,0 3.5,0.88 6.29,2.75 l 0.13,0.08 v -0.06 a 0.73,0.73 0 0 0 -0.1,-0.68 l -1,-0.82 a 1.09,1.09 0 0 1 -0.42,-0.9 c -0.09,-0.9 -0.46,-1.15 -0.85,-1.3 h -0.1 a 0.5,0.5 0 0 0 0,0.15 l -0.08,0.73 a 0.44,0.44 0 0 1 -0.41,0.28 h -0.23 a 3.18,3.18 0 0 1 -2.53,-1.45 c -0.36,-0.46 -0.6,-0.79 -1.18,-0.78 h -0.27 v 0 l 0.29,0.25 a 0.6,0.6 0 0 1 0.2,0.57 c 0,0.22 -0.24,0.37 -0.6,0.48 a 1.43,1.43 0 0 0 -0.58,0.11 1.2,1.2 0 0 1 -0.4,0.11 1.25,1.25 0 0 1 -0.65,-0.23 v 0 a 1.44,1.44 0 0 0 -0.8,-0.26 1.54,1.54 0 0 0 -0.42,0.07 v 0 h 0.07 a 1.32,1.32 0 0 1 0.58,1.7 l -1.1,3.37 a 2.36,2.36 0 0 0 0.65,2.33 c 0.79,0.3 1.16,0.58 1.19,0.9 0.03,0.32 -0.17,0.45 -0.55,0.65 v 0 a 1.35,1.35 0 0 0 0.66,0.15 1.43,1.43 0 0 0 0.94,-0.42 1.32,1.32 0 0 1 0.83,-0.31 1.48,1.48 0 0 1 0.55,0.09 c 1.25,0.33 1.82,0.65 1.86,1 m 39.32,-7.69 c -0.29,0 -0.55,0.18 -0.56,0.39 0,0.44 -0.23,0.75 -0.74,1 -0.18,0.1 -0.11,0.36 -0.11,0.37 0.07,0.22 0.25,0.45 0.46,0.44 h 0.17 a 1.06,1.06 0 0 1 0.92,-0.46 c 0.12,0 0.25,0 0.44,0 a 0.44,0.44 0 0 0 0.43,-0.32 0.93,0.93 0 0 0 -0.27,-1 1,1 0 0 0 -0.74,-0.37 m -3.55,0.66 a 0.51,0.51 0 0 0 -0.31,-0.16 c 0,0 -0.11,0 -0.22,0.2 a 2.2,2.2 0 0 0 -0.3,0.66 c 0,0.28 0,0.47 0.08,0.56 0.08,0.09 0.19,0.11 0.37,0.11 h 0.24 a 1.69,1.69 0 0 0 0.8,-0.58 v -0.14 c 0,-0.06 -0.06,-0.14 -0.16,-0.22 a 3.2,3.2 0 0 1 -0.55,-0.41 m 2.1,1.86 a 6.15,6.15 0 0 1 -0.57,-0.7 c -0.11,-0.12 -0.17,-0.18 -0.22,-0.18 -0.05,0 -0.12,0.06 -0.25,0.18 a 2,2 0 0 0 -0.67,0.8 c -0.06,0.25 0,0.42 0,0.52 a 0.56,0.56 0 0 0 0.45,0.2 2.29,2.29 0 0 0 1.18,-0.52 c 0.13,-0.13 0.13,-0.18 0,-0.3 m 0.63,1.52 c 0,-0.32 -0.18,-0.34 -0.3,-0.34 h -0.16 a 4.36,4.36 0 0 0 -1,0.29 0.29,0.29 0 0 0 -0.25,0.28 0.35,0.35 0 0 0 0.19,0.38 4.74,4.74 0 0 0 1.17,0.31 h 0.12 a 0.25,0.25 0 0 0 0.17,-0.05 0.28,0.28 0 0 0 0,-0.23 1.65,1.65 0 0 1 0,-0.66 m -3.38,0.56 a 2.25,2.25 0 0 1 -1.79,1 1.82,1.82 0 0 1 -0.77,-0.14 0.74,0.74 0 0 1 -0.31,-0.57 c 0,-0.38 0.28,-0.82 0.89,-1.35 a 1.6,1.6 0 0 1 1,-0.42 1,1 0 0 1 0.89,0.43 1.13,1.13 0 0 1 0.06,1.1 m -1.08,-2.12 a 1.79,1.79 0 0 0 -1.1,0.41 c -1.51,1.26 -1.84,2.23 -1.08,3.22 a 2.65,2.65 0 0 0 1.41,0.41 4,4 0 0 0 2.49,-1.19 1.71,1.71 0 0 0 0,-1.82 2,2 0 0 0 -1.74,-1.07 m 0.89,5.89 a 0.9,0.9 0 0 1 -0.85,-0.32 1,1 0 0 1 0.07,-1 v -0.12 h -0.34 c -0.75,0.12 -0.91,0.38 -0.95,0.79 a 0.62,0.62 0 0 1 -0.42,0.76 12.58,12.58 0 0 1 -5.2,1.39 14,14 0 0 1 -4,-0.66 c -0.77,-0.22 -1.41,-0.39 -2.1,-0.52 -0.45,0 -0.78,0.15 -0.83,0.34 a 0.35,0.35 0 0 0 0.13,0.3 l 1.55,0.54 c 0.21,0 0.86,0.18 0.91,0.8 0.05,0.62 0.51,1.07 1,1.06 h 0.18 0.09 v 0 0 0 a 0.86,0.86 0 0 1 -0.06,-0.7 0.34,0.34 0 0 1 0.33,-0.27 1.16,1.16 0 0 1 0.32,0.06 13.79,13.79 0 0 0 2.77,0.25 11.77,11.77 0 0 0 1.73,-0.14 0.86,0.86 0 0 1 0.22,0 0.51,0.51 0 0 1 0.42,0.17 2.62,2.62 0 0 0 1.46,0.61 1,1 0 0 0 0.67,-0.27 v 0 a 1,1 0 0 1 -0.66,-0.67 c 0,-0.36 0,-0.44 0.37,-0.54 a 4.16,4.16 0 0 0 1.62,-0.86 0.73,0.73 0 0 1 0.61,-0.23 v 0 c 1,0 1.27,-0.33 1.35,-0.55 v -0.22 h -0.13 -0.31 m -3.39,-4.38 a 0.87,0.87 0 0 0 0,-0.78 c 0,-0.18 -0.14,-0.23 -0.53,-0.27 -0.39,-0.04 -1.11,-0.14 -1.13,-1.08 v -0.33 h -0.16 a 1.57,1.57 0 0 0 -1,1 3.24,3.24 0 0 1 -0.29,0.51 1.29,1.29 0 0 1 -0.82,0.39 c -0.33,0 -0.6,-0.2 -0.85,-0.64 0,-0.13 -0.06,-0.2 -0.07,-0.24 a 1.93,1.93 0 0 0 -0.21,0.27 1.34,1.34 0 0 0 -0.18,1 2.69,2.69 0 0 1 -0.35,1.67 c -0.74,1.2 -1.54,1.88 -2.48,1.88 a 2.13,2.13 0 0 1 -0.68,-0.09 h -0.13 a 0.35,0.35 0 0 0 -0.32,0.3 0.36,0.36 0 0 0 0,0.34 4,4 0 0 0 1.26,0.23 3.11,3.11 0 0 0 2.39,-1.34 c 1,-1.45 2.28,-3.24 3.72,-3.27 a 1.89,1.89 0 0 1 0.91,0.23 v 0 a 0.78,0.78 0 0 0 0.57,0.4 0.33,0.33 0 0 0 0.27,-0.16 m -15.57,-38.31 a 0.85,0.85 0 0 1 -0.57,-0.29 c -0.06,-0.09 -0.11,-0.12 -0.15,-0.12 -0.04,0 -0.07,0 -0.18,0.11 -0.41,0.37 -0.32,0.61 -0.2,0.77 a 2.11,2.11 0 0 0 1.33,0.81 1,1 0 0 0 0.78,-0.55 6.07,6.07 0 0 0 0.51,-2.06 0.46,0.46 0 0 0 0,-0.33 1.33,1.33 0 0 0 -0.29,-0.12 v 0 l -0.16,-0.06 a 9.14,9.14 0 0 1 -1.57,-1 v 0.08 c -0.08,0.33 0,0.53 0.13,0.66 l 0.79,0.64 a 1,1 0 0 1 0.1,1.13 0.54,0.54 0 0 1 -0.48,0.36 m -1.82,3.25 a 0.47,0.47 0 0 1 -0.3,-0.1 l -0.83,-0.64 h -0.17 a 0.27,0.27 0 0 0 -0.23,0.16 0.29,0.29 0 0 0 0,0.27 7.4,7.4 0 0 0 1.24,1.26 0.74,0.74 0 0 0 0.43,0.18 0.57,0.57 0 0 0 0.35,-0.15 9.51,9.51 0 0 1 0.67,-0.73 3,3 0 0 0 0.9,-1.18 c 0,-0.21 0,-0.29 0,-0.31 0,-0.02 -0.06,0 -0.24,0 a 2.82,2.82 0 0 1 -1.71,-0.92 l -0.15,-0.06 a 0.34,0.34 0 0 0 -0.29,0.19 0.27,0.27 0 0 0 0,0.27 l 0.83,0.87 a 0.62,0.62 0 0 1 0,0.63 0.66,0.66 0 0 1 -0.52,0.34 m -1.99,0.02 h -0.17 c -0.09,0 -0.16,0 -0.18,0.08 -0.02,0.08 0,0.1 0,0.19 a 3.47,3.47 0 0 0 0.4,0.51 c 0.35,0.4 0.79,0.89 0.26,1.42 -0.14,0.09 -0.14,0.13 0,0.32 a 0.46,0.46 0 0 0 0.4,0.26 1.07,1.07 0 0 0 0.41,-0.13 l 0.68,-0.87 0.08,-0.2 a 0.15,0.15 0 0 0 -0.13,0 c -0.43,0 -0.72,-0.43 -1,-0.78 a 2.15,2.15 0 0 0 -0.76,-0.72 m -1.58,0.56 a 0.41,0.41 0 0 0 -0.07,0.23 2.89,2.89 0 0 0 0.28,1.13 v 0 a 3,3 0 0 1 0.32,1.29 c -0.07,0.34 -0.29,0.38 -0.39,0.38 a 0.42,0.42 0 0 1 -0.22,0 c -0.36,0 -0.58,-0.71 -0.64,-1 0,-0.13 0.19,-0.32 0.25,-0.24 0.06,0.08 0.18,0.25 0.24,0.22 0.22,0 -0.17,-0.93 -0.17,-0.93 a 0.37,0.37 0 0 0 -0.32,-0.11 0.86,0.86 0 0 0 -0.41,0.18 c -0.19,0.08 -0.3,0.2 -0.19,0.54 a 5.65,5.65 0 0 0 1.22,2.55 0.41,0.41 0 0 0 0.26,0.1 0.65,0.65 0 0 0 0.45,-0.29 3.47,3.47 0 0 0 -0.48,-3.95 0.28,0.28 0 0 0 -0.14,-0.1 m -2.45,5.87 c 0.07,0 0.14,-0.18 0.14,-0.29 a 29.84,29.84 0 0 1 -0.43,-3 c -0.06,-0.24 -0.16,-0.31 -0.21,-0.3 -0.05,0.01 -0.12,0.07 -0.12,0.2 a 12.55,12.55 0 0 0 0.45,3.34 z m 0.25,-4.15 a 1.47,1.47 0 0 0 -0.06,0.87 9.22,9.22 0 0 1 0.59,3.87 0.88,0.88 0 0 1 -0.8,0.75 0.76,0.76 0 0 1 -0.71,-0.53 13,13 0 0 1 -0.36,-3.68 0.37,0.37 0 0 0 -0.38,-0.32 0.36,0.36 0 0 0 -0.24,0.11 0.35,0.35 0 0 0 -0.08,0.28 10.28,10.28 0 0 0 0.81,5 1.1,1.1 0 0 0 0.87,0.43 c 0.61,0 1.25,-0.59 1.7,-1.55 0.37,-1.31 0,-2.95 -1.08,-5.14 l -0.17,-0.1 z m -4.15,1.35 -0.12,-0.05 a 0.28,0.28 0 0 0 -0.24,0.24 14.14,14.14 0 0 0 -0.19,4.39 0.33,0.33 0 0 0 0.33,0.26 c 0.15,0 0.31,-0.11 0.34,-0.38 a 20.11,20.11 0 0 1 -0.07,-4.34 z m -1.24,0.43 a 0.3,0.3 0 0 0 -0.21,-0.08 0.41,0.41 0 0 0 -0.38,0.32 9.55,9.55 0 0 0 0,5 2,2 0 0 0 2,1.53 1.68,1.68 0 0 0 1.7,-1.62 20.34,20.34 0 0 1 -0.24,-5.52 0.4,0.4 0 0 0 -0.1,-0.31 0.49,0.49 0 0 0 -0.34,-0.14 0.27,0.27 0 0 0 -0.28,0.23 14,14 0 0 0 -0.24,4.39 c 0,0.1 0,0.21 0,0.35 a 1.44,1.44 0 0 1 -0.11,1.16 0.76,0.76 0 0 1 -0.55,0.28 1.09,1.09 0 0 1 -0.89,-0.58 8.32,8.32 0 0 1 -0.29,-4.78 0.38,0.38 0 0 0 -0.1,-0.28 m -2.87,-0.46 a 0.31,0.31 0 0 0 -0.24,-0.12 0.4,0.4 0 0 0 -0.36,0.26 6.55,6.55 0 0 0 0.23,5.52 0.25,0.25 0 0 0 0.21,0.12 h 0.09 c 0,0 0.07,-0.13 0,-0.42 -0.59,-2.44 -0.56,-4 0.1,-5 a 0.29,0.29 0 0 0 0,-0.31 m -2.58,4.34 a 8.42,8.42 0 0 0 1.67,3.52 1.81,1.81 0 0 0 1.2,0.42 1.47,1.47 0 0 0 1.49,-1.13 2,2 0 0 0 -0.17,-1 c 0,-0.13 -0.09,-0.25 -0.12,-0.38 a 9,9 0 0 1 -0.07,-4.86 0.33,0.33 0 0 0 0,-0.29 0.4,0.4 0 0 0 -0.31,-0.12 0.49,0.49 0 0 0 -0.42,0.23 8.61,8.61 0 0 0 0,5.28 1,1 0 0 1 -0.14,0.87 0.71,0.71 0 0 1 -0.55,0.29 0.88,0.88 0 0 1 -0.7,-0.38 c -1.51,-2.43 -1.77,-4.53 -0.81,-6.43 a 0.47,0.47 0 0 0 0,-0.5 0.32,0.32 0 0 0 -0.27,-0.14 0.51,0.51 0 0 0 -0.38,0.25 5.57,5.57 0 0 0 -0.42,4.38 m -2.52,-5.37 a 4.67,4.67 0 0 0 -1,3.82 8.22,8.22 0 0 0 0.68,1.81 c 0.14,0.32 0.32,0.7 0.47,1.13 a 4.15,4.15 0 0 1 0.32,1.63 c 0,0.08 0,0.26 0.44,0.26 a 3.2,3.2 0 0 0 0.61,-0.1 1.54,1.54 0 0 0 0.94,-0.7 1.16,1.16 0 0 0 0,-0.88 c -1.26,-2.84 -1.33,-4.62 -0.23,-6.12 a 0.39,0.39 0 0 0 0,-0.39 0.31,0.31 0 0 0 -0.27,-0.14 0.45,0.45 0 0 0 -0.33,0.17 3.16,3.16 0 0 0 -0.91,2.47 6.59,6.59 0 0 0 0.42,1.93 c 0.14,0.46 0.3,1 0.41,1.52 a 0.54,0.54 0 0 1 -0.06,0.5 0.31,0.31 0 0 1 -0.27,0.15 c -0.11,0 -0.32,0 -0.48,-0.47 -0.16,-0.47 -0.32,-1 -0.45,-1.33 v 0 a 7.31,7.31 0 0 1 -0.52,-2 4.34,4.34 0 0 1 0.89,-2.89 v 0 a 0.4,0.4 0 0 0 0.07,-0.38 0.36,0.36 0 0 0 -0.32,-0.15 0.41,0.41 0 0 0 -0.36,0.2 m 0.2,-1.24 a 1.42,1.42 0 0 0 1,0.64 0.48,0.48 0 0 0 0.36,-0.2 v -0.16 l -0.49,-0.38 a 0.44,0.44 0 0 1 -0.19,-0.27 0.79,0.79 0 0 1 0.19,-0.55 7.79,7.79 0 0 0 1.09,-1.49 c 0.1,-0.19 0.13,-0.36 0.07,-0.45 h -0.07 c -0.07,0 -0.14,0.06 -0.2,0.17 a 19.27,19.27 0 0 1 -1.54,2 c -0.24,0.3 -0.29,0.52 -0.17,0.76 m 2.7,-3.06 c 0,0 -0.09,0 -0.12,0.12 a 14.43,14.43 0 0 1 -1.18,2 0.27,0.27 0 0 0 0,0.25 h 0.09 0.14 a 5.7,5.7 0 0 0 1.23,-2.15 0.25,0.25 0 0 0 -0.12,-0.24 m 1.7,0.14 a 11.49,11.49 0 0 1 -1,2.48 0.27,0.27 0 0 0 0,0.3 h 0.08 a 0.32,0.32 0 0 0 0.23,-0.15 6.63,6.63 0 0 0 1.07,-2.51 c 0,-0.18 0,-0.26 -0.17,-0.34 a 0.2,0.2 0 0 0 -0.16,0.18 m -2.03,4.13 a 2.09,2.09 0 0 0 0.86,0.2 1.44,1.44 0 0 0 1.24,-0.85 l 1.08,-3.06 c 0,-0.26 0,-0.35 -0.09,-0.4 a 0.24,0.24 0 0 0 -0.12,0.15 19.17,19.17 0 0 1 -1.42,3 0.91,0.91 0 0 1 -0.7,0.42 0.63,0.63 0 0 1 -0.53,-0.28 0.74,0.74 0 0 1 0,-0.76 18.42,18.42 0 0 0 1.19,-2.72 0.26,0.26 0 0 0 -0.1,-0.31 0.28,0.28 0 0 0 -0.2,0.19 19.5,19.5 0 0 1 -1.5,3.03 1.23,1.23 0 0 0 -0.21,0.93 0.85,0.85 0 0 0 0.47,0.49 m 5.58,-5.04 a 0.37,0.37 0 0 0 -0.3,0.28 27.23,27.23 0 0 1 -0.54,3.17 0.27,0.27 0 0 0 0,0.22 l 0.13,0.06 c 0.13,0 0.29,-0.15 0.38,-0.38 a 23.55,23.55 0 0 0 0.43,-3.15 c 0,-0.2 -0.08,-0.2 -0.1,-0.2 m -1.4,4.9 a 0.59,0.59 0 0 1 -0.52,-0.24 c -0.13,-0.21 -0.11,-0.49 0,-0.93 l 0.81,-2.89 a 0.28,0.28 0 0 0 -0.06,-0.25 l -0.14,-0.07 c -0.11,0 -0.23,0.12 -0.31,0.29 a 21.19,21.19 0 0 1 -0.71,2 c -0.19,0.48 -0.37,0.93 -0.57,1.55 a 1.16,1.16 0 0 0 -0.08,0.75 1.77,1.77 0 0 0 1.48,0.52 h 0.09 c 1.46,-0.19 2.21,-0.72 2.3,-1.63 l 0.57,-3.81 a 0.48,0.48 0 0 0 -0.14,-0.37 l -0.16,-0.06 c -0.11,0 -0.27,0.11 -0.35,0.42 l -0.49,2.9 c -0.2,1.21 -0.79,1.8 -1.76,1.82 m 5.05,-2.28 a 9.76,9.76 0 0 0 0.17,-3.89 c 0,-0.18 -0.1,-0.26 -0.13,-0.26 -0.03,0 -0.15,0.11 -0.19,0.29 l -0.17,3.91 c 0,0.14 0.1,0.15 0.14,0.15 0.04,0 0.15,-0.05 0.18,-0.2 m -0.89,-3.32 a 0.37,0.37 0 0 0 -0.23,0.21 11.49,11.49 0 0 0 -0.59,4.57 1,1 0 0 0 1,0.89 2.16,2.16 0 0 0 1.83,-1.58 17.15,17.15 0 0 0 0.25,-4.88 c 0,-0.29 -0.12,-0.47 -0.25,-0.47 l -0.18,0.1 a 0.53,0.53 0 0 0 -0.12,0.38 12,12 0 0 1 -0.27,4.49 c -0.38,0.63 -0.75,1 -1.07,1 -0.32,0 -0.46,-0.09 -0.52,-0.7 a 16.83,16.83 0 0 1 0.32,-3.69 c 0,-0.1 0,-0.17 -0.17,-0.27 m 2.8,3.27 a 1.92,1.92 0 0 0 -0.25,0.44 c -0.11,0.55 0,0.68 0,0.71 v 0 a 0.55,0.55 0 0 0 0.2,0 2.76,2.76 0 0 0 1.09,-2.15 l -0.22,-3.65 c 0,-0.22 -0.15,-0.36 -0.26,-0.36 l -0.18,0.09 a 0.68,0.68 0 0 0 -0.12,0.46 v 0.81 c 0,0.42 0,0.83 0,1.24 v 1.18 a 1.5,1.5 0 0 1 -0.24,1.23 z m -5.06,18.05 a 0.37,0.37 0 0 0 0.3,-0.1 c 0,0 0.07,-0.19 -0.07,-0.52 a 24.2,24.2 0 0 0 -3.67,-5 0.5,0.5 0 0 0 -0.36,-0.18 h -0.1 c 0,0 0,0.09 0.06,0.19 0.8,1 1.72,2.21 2.44,3.29 a 0.51,0.51 0 0 1 0.1,0.48 v 0 l -0.12,0.1 v 0 0 a 0.58,0.58 0 0 1 -0.37,-0.16 61.41,61.41 0 0 1 -3.81,-4.88 0.29,0.29 0 0 0 -0.26,-0.15 0.43,0.43 0 0 0 -0.36,0.22 0.34,0.34 0 0 0 0,0.35 l 0.23,0.34 c 1.55,2.3 3.47,5.15 5.87,5.89 z m -1.18,-6.64 a 12.43,12.43 0 0 0 3.13,4.44 0.31,0.31 0 0 0 0.17,0.08 h 0.08 a 0.41,0.41 0 0 0 -0.06,-0.35 51.4,51.4 0 0 0 -3.13,-4.4 h -0.16 a 0.38,0.38 0 0 0 0,0.27 m 5.06,6.6 a 1.69,1.69 0 0 0 0.1,-1.37 20.14,20.14 0 0 0 -2.62,-4.74 l -0.2,-0.28 a 0.66,0.66 0 0 0 -0.52,-0.23 c -0.16,0 -0.25,0 -0.26,0.08 -0.01,0.08 0,0.08 0.09,0.19 a 27.64,27.64 0 0 1 2.77,4.63 0.74,0.74 0 0 1 0,0.77 0.57,0.57 0 0 1 -0.49,0.33 0.69,0.69 0 0 1 -0.51,-0.27 45.16,45.16 0 0 1 -3.94,-4.94 0.37,0.37 0 0 0 -0.31,-0.13 0.35,0.35 0 0 0 -0.3,0.16 0.41,0.41 0 0 0 0,0.39 33.71,33.71 0 0 0 4.17,5.27 1.63,1.63 0 0 0 1.17,0.47 1,1 0 0 0 0.78,-0.33 m -0.41,-7.55 2.21,4 a 0.54,0.54 0 0 0 0.4,0.26 l 0.12,-0.06 c 0,0 0.11,-0.21 -0.11,-0.67 l -2.35,-4.43 c 0,-0.09 -0.09,-0.12 -0.15,-0.12 h -0.1 v 0.19 a 0.48,0.48 0 0 1 0,0.34 c -0.05,0.12 -0.1,0.23 0.08,0.47 m 2.98,6.52 a 1.44,1.44 0 0 0 1.19,-0.74 2.11,2.11 0 0 0 -0.13,-2.09 26.54,26.54 0 0 1 -2.11,-4.43 c -0.09,-0.24 -0.23,-0.38 -0.39,-0.37 a 0.41,0.41 0 0 0 -0.33,0.22 0.33,0.33 0 0 0 0,0.33 39.63,39.63 0 0 0 2.23,4.65 1.15,1.15 0 0 1 0.1,1.18 0.73,0.73 0 0 1 -0.62,0.36 1,1 0 0 1 -0.83,-0.45 19.24,19.24 0 0 1 -1.73,-2.66 l -0.19,-0.23 c -0.35,-0.58 -0.71,-1.19 -1.07,-1.7 a 0.4,0.4 0 0 0 -0.32,-0.17 0.41,0.41 0 0 0 -0.35,0.24 0.34,0.34 0 0 0 0.1,0.39 l 3,4.66 a 1.64,1.64 0 0 0 1.39,0.8 m 2.42,-4.99 a 0.4,0.4 0 0 0 0.31,-0.18 0.48,0.48 0 0 0 0,-0.47 l -2.12,-3.73 a 0.42,0.42 0 0 0 -0.12,-0.18 c 0,0 -0.06,0 -0.11,0.1 a 1.1,1.1 0 0 0 -0.08,0.85 l 2,3.54 a 0.21,0.21 0 0 0 0.17,0.07 m -2.83,-3.35 a 0.21,0.21 0 0 0 -0.18,0.11 0.68,0.68 0 0 0 0,0.62 48.87,48.87 0 0 0 2.4,4.6 1.43,1.43 0 0 0 1.13,0.69 1.2,1.2 0 0 0 0.95,-0.59 3.06,3.06 0 0 0 0,-2.81 28,28 0 0 0 -2.94,-5 0.33,0.33 0 0 0 -0.23,-0.11 0.21,0.21 0 0 0 -0.18,0.11 0.62,0.62 0 0 0 0,0.56 26.93,26.93 0 0 1 2.8,5 1.44,1.44 0 0 1 0,1.36 0.69,0.69 0 0 1 -0.59,0.35 0.83,0.83 0 0 1 -0.67,-0.4 30,30 0 0 1 -2.33,-4.37 0.34,0.34 0 0 0 -0.25,-0.16 m 1.93,-3.61 a 0.67,0.67 0 0 0 0,0.61 32,32 0 0 1 1.77,2.83 l 0.09,0.14 c 0.47,0.8 0.86,1.46 1.15,1.89 0.14,0.15 0.26,0.23 0.35,0.23 0.09,0 0.25,-0.23 0.26,-0.53 -0.08,-1.86 -1,-4.11 -3,-6.87 l -0.06,0.09 a 0.5,0.5 0 0 0 0,0.5 15.21,15.21 0 0 1 2,3.83 0.52,0.52 0 0 1 0,0.5 l -0.1,0.08 h -0.08 c -0.14,0 -0.28,-0.11 -0.38,-0.31 a 15.29,15.29 0 0 0 -1.82,-3 l -0.14,-0.11 z m 3.4,-14.9999997 c 1,0.3 1.23,0.9399997 1.16,1.3999997 a 0.72,0.72 0 0 1 -0.65,0.67 1.22,1.22 0 0 1 -0.73,-0.34 0.89,0.89 0 0 0 0.07,0.44 2.24,2.24 0 0 0 1.78,1.24 0.6,0.6 0 0 0 0.53,-0.24 1.07,1.07 0 0 0 0,-1 5.38,5.38 0 0 1 -0.6,-2.6499997 c 0,-0.18 0,-0.24 -0.09,-0.28 a 1,1 0 0 0 -0.29,0.13 1.42,1.42 0 0 1 -0.6,0.14 2.4,2.4 0 0 1 -1.08,-0.32 l -0.13,0.11 a 0.22,0.22 0 0 0 0,0.21 z m -0.54,-2.17 a 1.55,1.55 0 0 1 -0.48,-0.07 h -0.08 a 0.5,0.5 0 0 0 0.07,0.17 2.3,2.3 0 0 0 1.44,0.6 0.7,0.7 0 0 0 0.64,-0.31 c 0.17,-0.31 0,-0.87 -0.34,-1.53 l -0.07,-0.13 v -0.08 c 0,-0.07 0,-0.22 -0.62,-0.75 v 0 c 0,0.15 -0.2,0.25 -0.46,0.3 a 4,4 0 0 1 -0.54,0.05 h -0.71 l -0.1,0.06 a 0.45,0.45 0 0 0 0.36,0.33 c 1.3,0 1.76,0.44 1.76,0.83 0,0.39 -0.35,0.57 -0.82,0.58 m 4.4,-2.61 a 4.77,4.77 0 0 0 2,1.07 0.27,0.27 0 0 0 0.22,-0.09 0.8,0.8 0 0 0 0.24,-0.72 1.19,1.19 0 0 0 -0.77,-0.8 v 0 a 0.75,0.75 0 0 1 -0.16,0.51 0.59,0.59 0 0 1 -0.41,0.18 0.64,0.64 0 0 1 -0.67,-0.56 1.54,1.54 0 0 0 -0.72,-1 v 0 0 a 1.27,1.27 0 0 1 0.15,0.94 0.47,0.47 0 0 0 0.08,0.47 m -13.93,32.8299997 h -0.09 a 0.67,0.67 0 0 0 0.06,0.5 l 3.46,4.21 0.19,0.1 h 0.06 a 0.48,0.48 0 0 0 -0.11,-0.28 l -3.48,-4.44 z m 4.43,6.96 c 0.41,0 0.66,-0.36 0.66,-0.94 -0.11,-1.86 -1.56,-3.45 -3,-5 a 0.55,0.55 0 0 0 -0.26,-0.12 l -0.11,0.08 v 0.11 a 25.54,25.54 0 0 1 2.71,3.74 1,1 0 0 1 0,0.9 0.51,0.51 0 0 1 -0.43,0.24 0.71,0.71 0 0 1 -0.54,-0.25 42.76,42.76 0 0 0 -4.2,-5 0.37,0.37 0 0 0 -0.25,-0.12 l -0.15,0.11 c 0,0.07 0,0.18 0.11,0.28 a 67.44,67.44 0 0 1 4.53,5.53 1.37,1.37 0 0 0 0.91,0.47 m -0.76,-7.87 h -0.13 l 0.07,0.16 a 19.73,19.73 0 0 1 2.75,4.34 l 0.14,0.11 h 0.06 a 0.57,0.57 0 0 0 0,-0.37 7.2,7.2 0 0 0 -2.81,-4.21 z m 3.72,7.28 a 1,1 0 0 0 0.43,0.11 c 0.18,0 0.6,-0.07 0.73,-0.71 a 11.18,11.18 0 0 0 -2,-6.33 0.33,0.33 0 0 0 -0.27,-0.13 0.51,0.51 0 0 0 -0.39,0.19 0.32,0.32 0 0 0 0,0.28 17.35,17.35 0 0 0 0.84,2 l 0.06,0.12 a 16.32,16.32 0 0 1 1,2.52 0.88,0.88 0 0 1 0,0.72 0.4,0.4 0 0 1 -0.31,0.16 0.69,0.69 0 0 1 -0.48,-0.24 16.23,16.23 0 0 1 -2.07,-2.91 l -0.1,-0.16 a 13.62,13.62 0 0 0 -1,-1.61 0.64,0.64 0 0 0 -0.41,-0.27 l -0.15,0.08 a 0.7,0.7 0 0 0 0,0.6 18.72,18.72 0 0 0 4.21,5.54 m 2.49,-4.38 c 0.08,0 0.16,-0.07 0.18,-0.28 a 5.69,5.69 0 0 0 -1.7,-4.19 0.43,0.43 0 0 0 -0.22,-0.06 0.18,0.18 0 0 0 -0.17,0.09 0.39,0.39 0 0 0 0,0.37 14.42,14.42 0 0 1 1.78,3.93 0.17,0.17 0 0 0 0.14,0.14 m -0.05,-5.67 a 0.53,0.53 0 0 0 -0.29,0.27 0.6,0.6 0 0 0 -0.08,0.55 11.41,11.41 0 0 1 1.32,5.85 c 0,0.66 -0.39,0.7 -0.47,0.7 a 0.66,0.66 0 0 1 -0.55,-0.35 23,23 0 0 1 -1.3,-2.67 v -0.05 c -0.31,-0.71 -0.66,-1.51 -1,-2.16 a 0.47,0.47 0 0 0 -0.12,-0.12 c 0,0 -0.08,0 -0.15,0.33 a 1.87,1.87 0 0 0 0.16,1.24 c 0.32,0.62 0.63,1.33 0.88,1.88 v 0 a 10,10 0 0 0 1.81,3.15 0.9,0.9 0 0 0 0.51,0.19 c 0.22,0 0.41,-0.15 0.57,-0.47 0.76,-1.34 -0.1,-6.19 -1.2,-8.22 -0.06,-0.14 -0.11,-0.14 -0.14,-0.14 m 2.89,14.05 a 1.51,1.51 0 0 0 0.41,0.07 0.27,0.27 0 0 0 0.21,-0.07 0.37,0.37 0 0 0 0,-0.3 13.36,13.36 0 0 0 -0.86,-3.62 3,3 0 0 1 -0.3,-1.08 0.25,0.25 0 0 0 -0.1,-0.28 l -0.18,0.12 a 1.46,1.46 0 0 0 -0.06,1.3 l 0.71,1.84 a 0.76,0.76 0 0 1 0,0.67 l -0.12,0.09 h -0.03 a 0.53,0.53 0 0 1 -0.39,-0.27 4.53,4.53 0 0 1 -0.6,-1.71 c -0.19,-0.74 -0.4,-0.83 -0.59,-0.9 h -0.1 -0.11 v 0.07 c 0.39,1.58 0.9,3.33 2.11,4.06 m -5.91,-0.82 h 0.08 a 0.34,0.34 0 0 0 0.21,-0.15 0.28,0.28 0 0 0 0,-0.29 l -0.88,-1.36 h -0.1 -0.12 v 0.2 z m 1.59,-2.09 v 0.21 l 1,1.87 h 0.08 a 0.28,0.28 0 0 0 0.24,-0.14 0.39,0.39 0 0 0 -0.08,-0.32 l -1.06,-1.63 -0.11,-0.06 z m 1.88,4.4 a 0.86,0.86 0 0 0 0.35,0.07 c 0.17,0 0.4,-0.06 0.49,-0.56 a 3.69,3.69 0 0 0 -0.25,-2.09 l -1.42,-3.16 a 0.65,0.65 0 0 0 -0.16,-0.25 c 0,0 -0.08,0 -0.17,0.29 a 2,2 0 0 0 0.37,1.58 c 0.23,0.35 0.43,0.75 0.65,1.17 l 0.27,0.53 a 1.15,1.15 0 0 1 0,1 0.53,0.53 0 0 1 -0.41,0.23 0.72,0.72 0 0 1 -0.52,-0.27 l -1.4,-2 a 2.45,2.45 0 0 0 -1.25,-1.23 0.93,0.93 0 0 0 -0.38,-0.08 v 0 a 1.31,1.31 0 0 0 0.09,0.24 15.72,15.72 0 0 1 1.06,1.54 v 0 a 7.12,7.12 0 0 0 2.69,2.94 m -5.47,-3.95 a 0.28,0.28 0 0 0 -0.25,0.12 0.26,0.26 0 0 0 0,0.27 l 1.77,2.4 a 1.16,1.16 0 0 0 0.85,0.46 0.49,0.49 0 0 0 0.39,-0.19 0.82,0.82 0 0 0 0.1,-0.73 c 0,-0.19 -0.14,-0.26 -0.18,-0.26 l -0.11,0.13 a 0.59,0.59 0 0 1 -0.39,0.21 0.5,0.5 0 0 1 -0.39,-0.22 l -1.52,-2.11 a 0.3,0.3 0 0 0 -0.27,-0.11 m 9.79,8.41 a 1.26,1.26 0 0 0 0.81,0.3 1.24,1.24 0 0 0 0.54,-0.14 3.43,3.43 0 0 0 1.92,-1.7 1.25,1.25 0 0 0 -0.26,-1.12 1.59,1.59 0 0 0 -1.22,-0.64 h -0.23 a 2.53,2.53 0 0 1 -2,-1 1.91,1.91 0 0 0 -0.84,-0.64 1,1 0 0 0 -0.27,0 c -0.11,0 -0.12,0 -0.12,0 v 0.14 a 2.25,2.25 0 0 0 0.84,1.22 9,9 0 0 0 1.58,0.9 c 0.33,0.21 0.48,0.41 0.46,0.62 -0.02,0.21 -0.2,0.44 -0.6,0.62 a 0.65,0.65 0 0 1 -0.29,0.07 c -0.3,0 -0.55,-0.19 -0.79,-0.6 a 10.54,10.54 0 0 0 -1.8,-2.14 l -0.18,-0.07 a 0.45,0.45 0 0 0 -0.2,0.06 1.35,1.35 0 0 0 -0.58,0.53 0.51,0.51 0 0 1 -0.4,0.26 0.69,0.69 0 0 1 -0.35,-0.14 l -0.21,0.06 a 11.19,11.19 0 0 0 -2.57,2.11 0.82,0.82 0 0 1 -0.47,0.23 v 0 l -0.17,-0.07 v 0 0 a 0.6,0.6 0 0 1 0.26,-0.62 8.72,8.72 0 0 0 2.09,-1.83 0.34,0.34 0 0 0 0.05,-0.24 0.46,0.46 0 0 0 -0.31,-0.47 1.75,1.75 0 0 0 -0.85,-0.19 3.62,3.62 0 0 0 -1,0.16 5,5 0 0 1 -0.89,0.11 5.75,5.75 0 0 1 -1.51,-0.21 1.13,1.13 0 0 0 -0.41,-0.05 0.77,0.77 0 0 0 -0.71,0.38 3.51,3.51 0 0 0 -0.18,0.51 4.94,4.94 0 0 0 0,1.35 2.53,2.53 0 0 0 0.19,0.44 0.36,0.36 0 0 0 0.3,0.15 1.15,1.15 0 0 0 0.52,-0.18 1.45,1.45 0 0 0 0.73,-1.3 0.68,0.68 0 0 1 0.44,-0.44 5.45,5.45 0 0 1 1.64,-0.34 2.75,2.75 0 0 1 0.52,0 c 0.22,0 0.34,0.14 0.38,0.28 0.04,0.14 -0.14,0.32 -0.27,0.42 a 9.6,9.6 0 0 1 -2.25,1.1 c -0.52,0.24 -0.7,0.67 -0.62,1.37 0,0.36 0.37,0.76 1,1.26 a 1.15,1.15 0 0 0 1.65,-0.6 c 0,-0.23 0.25,-0.43 0.67,-0.66 a 8.26,8.26 0 0 0 1.51,-1.32 0.49,0.49 0 0 1 0.31,-0.14 c 0.23,0 0.29,0.23 0.36,0.47 l 0.06,0.22 c 0.14,0.25 0.28,0.36 0.43,0.36 0.15,0 0.41,-0.16 0.67,-0.47 a 0.54,0.54 0 0 1 0.35,-0.19 h 0.14 v 0 c 0.1,0.1 0.1,0.26 0.07,0.52 -0.03,0.26 0,0.21 0.08,0.25 a 0.45,0.45 0 0 1 0.29,-0.1 0.86,0.86 0 0 1 0.53,0.2 z m 3.17,2.51 h 0.05 a 1.33,1.33 0 0 0 0.58,0.11 1.62,1.62 0 0 0 1.48,-1.24 2,2 0 0 0 -0.88,-2.29 0.61,0.61 0 0 0 -0.36,-0.15 0.49,0.49 0 0 0 -0.31,0.16 7.05,7.05 0 0 1 -0.8,1 0.47,0.47 0 0 0 -0.07,0.36 0.52,0.52 0 0 0 0.27,0.28 1.06,1.06 0 0 1 0.61,0.77 c 0,0.31 -0.16,0.62 -0.57,1 m -12.71,0.33 v 0 a 0.42,0.42 0 0 0 0.31,-0.09 v -0.05 c -0.4,-0.33 -0.58,-0.58 -0.58,-0.85 0,-0.27 0.25,-0.55 0.58,-0.8 0.33,-0.25 0.24,-0.46 0.09,-0.65 a 3.34,3.34 0 0 1 -0.8,-0.93 0.4,0.4 0 0 0 -0.33,-0.21 0.93,0.93 0 0 0 -0.47,0.21 1.79,1.79 0 0 0 -0.63,2.08 1.87,1.87 0 0 0 1.78,1.32 m -2.22,-4.83 a 0.49,0.49 0 0 0 0.07,-0.37 8.06,8.06 0 0 1 0,-1.24 c 0,-0.09 0,-0.28 -0.47,-0.36 h -0.3 a 1.79,1.79 0 0 0 -1.7,1.28 1.83,1.83 0 0 0 0.73,2.08 0.6,0.6 0 0 0 0.27,0.11 v 0 a 0.83,0.83 0 0 0 -0.06,-0.44 0.71,0.71 0 0 1 0.09,-0.62 c 0.19,-0.25 0.55,-0.35 1.19,-0.37 z m -26.4,-3.86 a 0.76,0.76 0 0 0 0.48,0.18 0.50717354,0.50717354 0 0 0 0.17,-1 h -0.16 a 3.28,3.28 0 0 1 -1.13,-0.52 2.44,2.44 0 0 0 0.64,1.34 m -2,-2.48 h -0.18 a 3.17,3.17 0 0 1 -1.16,-0.41 2.26,2.26 0 0 0 0.76,1.27 0.8,0.8 0 0 0 0.43,0.13 0.51,0.51 0 0 0 0.49,-0.41 0.47,0.47 0 0 0 -0.34,-0.58 m 0.34,-1.81 a 2.67,2.67 0 0 0 -0.88,-1 3,3 0 0 1 0,1 1.17,1.17 0 0 0 0,0.37 v 0 a 0.54,0.54 0 0 0 0.54,0.47 0.39,0.39 0 0 0 0.32,-0.16 0.79,0.79 0 0 0 0.06,-0.73 m 1.11,1.34 v 0 a 0.56,0.56 0 0 0 0.54,0.48 0.38,0.38 0 0 0 0.33,-0.17 0.79,0.79 0 0 0 0,-0.73 2.49,2.49 0 0 0 -0.88,-1 3.13,3.13 0 0 1 0,1 0.89,0.89 0 0 0 0,0.36 m 6.44,4.14 h -0.26 a 2.88,2.88 0 0 0 -1,0.26 2.8,2.8 0 0 1 0.8,0.58 v 0 a 0.73,0.73 0 0 0 0.29,0.19 0.59,0.59 0 0 0 0.25,0.05 0.53,0.53 0 0 0 0.52,-0.44 c 0,-0.28 -0.2,-0.52 -0.61,-0.65 m 1.53,3.23 a 1,1 0 0 0 0.48,0.13 0.51,0.51 0 0 0 0.5,-0.5 0.43,0.43 0 0 0 -0.43,-0.47 h -0.29 a 2.92,2.92 0 0 1 -1.08,-0.17 2.68,2.68 0 0 0 0.82,1 m 3.61,-0.32 a 1.12,1.12 0 0 0 0.51,0.15 0.49,0.49 0 0 0 0.5,-0.49 c 0,-0.14 0,-0.44 -0.52,-0.47 a 3.1,3.1 0 0 1 -1.27,-0.24 2.63,2.63 0 0 0 0.78,1 m 9.86,2.24 a 1.11,1.11 0 0 0 0.44,0.1 0.5,0.5 0 0 0 0.54,-0.51 0.42,0.42 0 0 0 -0.47,-0.44 3.59,3.59 0 0 1 -1.42,-0.05 2.73,2.73 0 0 0 0.93,0.9 m -1.99,-0.05 a 3,3 0 0 1 -1.67,0.49 3.24,3.24 0 0 0 1.6,0.8 c 1.43,0 1.06,-1.69 0.07,-1.29 m -0.57,-1.83 c 0,-0.29 -0.17,-0.63 -0.76,-0.7 a 2.47,2.47 0 0 0 -1.2,0.36 3.16,3.16 0 0 1 1.29,0.68 0.57,0.57 0 0 0 0.29,0.09 0.41,0.41 0 0 0 0.38,-0.43 m 2.17,0.08 a 0.48,0.48 0 0 0 0.43,-0.38 0.79,0.79 0 0 0 -0.46,-0.83 2.71,2.71 0 0 0 -1,-0.16 2,2 0 0 0 -0.35,0 3.29,3.29 0 0 1 1,1.12 0.46,0.46 0 0 0 0.38,0.22 m 3.69,1.27 a 2.92,2.92 0 0 0 -1.54,0.86 3.14,3.14 0 0 1 1.75,0.49 c 1,0.39 1.25,-1.39 -0.21,-1.35 m 6.91,3.52 a 0.53,0.53 0 0 0 0.53,0.38 0.77,0.77 0 0 0 0.62,-0.38 2.69,2.69 0 0 0 0.32,-1.24 4.26,4.26 0 0 1 -1.25,0.76 0.4,0.4 0 0 0 -0.22,0.48 m 16.71,2.12 a 1.18,1.18 0 0 0 0.27,0 2.67,2.67 0 0 0 1.12,-0.72 5.24,5.24 0 0 1 -1.56,-0.29 h -0.15 a 0.41,0.41 0 0 0 -0.42,0.43 0.59,0.59 0 0 0 0.18,0.4 0.79,0.79 0 0 0 0.56,0.19 m 1.73,-3.2 h -0.34 a 2.68,2.68 0 0 0 -1,0.21 c -0.35,0.23 -0.51,0.53 -0.41,0.82 a 0.57,0.57 0 0 0 0.53,0.42 0.43,0.43 0 0 0 0.36,-0.22 3.19,3.19 0 0 1 0.88,-1.22 m -2.79,0.74 a 3.92,3.92 0 0 1 0.35,-1.43 2.19,2.19 0 0 0 -1.11,0.6 0.76,0.76 0 0 0 -0.18,0.82 0.61,0.61 0 0 0 0.55,0.35 0.4,0.4 0 0 0 0.39,-0.34 m -2.04,2.42 a 3.21,3.21 0 0 1 1.75,-0.54 3.27,3.27 0 0 0 -1.68,-0.82 c -1.49,0 -1.08,1.8 -0.07,1.36 m -16.15,1.44 a 0.38,0.38 0 0 0 0.36,-0.31 3.18,3.18 0 0 1 0.49,-1.39 2.36,2.36 0 0 0 -1.17,0.56 0.72,0.72 0 0 0 -0.19,0.82 0.59,0.59 0 0 0 0.51,0.34 m 4.63,-6.07 a 3.48,3.48 0 0 1 0.89,-1.18 h -0.33 a 2.57,2.57 0 0 0 -1,0.21 c -0.36,0.22 -0.51,0.5 -0.43,0.78 a 0.57,0.57 0 0 0 0.53,0.42 0.45,0.45 0 0 0 0.38,-0.22 m 1.48,2.83 a 0.75,0.75 0 0 0 0.26,0 2.58,2.58 0 0 0 1.08,-0.67 5,5 0 0 1 -1.5,-0.27 h -0.14 a 0.39,0.39 0 0 0 -0.41,0.41 0.55,0.55 0 0 0 0.18,0.39 0.64,0.64 0 0 0 0.53,0.19 m 0.82,-3.65 h -0.16 c -0.53,0.13 -0.68,0.45 -0.64,0.72 a 0.5,0.5 0 0 0 0.44,0.46 0.52,0.52 0 0 0 0.3,-0.11 3.3,3.3 0 0 1 1.21,-0.83 2.75,2.75 0 0 0 -1.15,-0.25 m 2.07,6.5 a 0.74,0.74 0 0 0 0.33,-0.09 l 0.12,-0.08 a 0.55,0.55 0 0 1 -0.35,-0.43 1.19,1.19 0 0 1 0.44,-1 c 2.1,-1.11 2.76,-2.09 2.48,-3.76 a 0.25,0.25 0 0 0 -0.06,-0.21 0.58,0.58 0 0 0 -0.41,-0.14 0.62,0.62 0 0 0 -0.6,0.37 3.58,3.58 0 0 1 -1.16,2.32 12.3,12.3 0 0 1 -5.93,1.79 2,2 0 0 0 -2,1.17 l -0.74,1.86 a 0.83,0.83 0 0 1 -0.84,0.75 l -1.82,-0.17 a 0.68,0.68 0 0 1 -0.48,-0.21 0.55,0.55 0 0 1 -0.12,-0.45 14.47,14.47 0 0 1 0.65,-4.54 1.66,1.66 0 0 0 -0.17,-1.32 c -0.07,-0.11 -0.15,-0.16 -0.19,-0.16 -0.04,0 -0.11,0 -0.23,0.29 -0.66,1.22 -1,3.26 -1,6.21 0,0.57 0.13,0.9 0.64,1 l 3.78,0.28 c 0.55,0 0.8,-0.22 0.82,-0.68 0.19,-1.93 0.83,-2.92 1.88,-3 0.86,-0.15 1.88,-0.32 3,-0.49 h 0.23 c 0.44,0 0.63,0.14 0.72,0.28 a 2.17,2.17 0 0 0 1,0.36 m -2.65,-56.7699997 a 1,1 0 0 1 -0.56,-0.25 4.12,4.12 0 0 0 -2,-1.3 h -0.23 v 0 a 7.11,7.11 0 0 0 3.79,2.55 1.81,1.81 0 0 0 0.36,0 0.34,0.34 0 0 0 0.24,-0.08 0.23,0.23 0 0 0 0.05,-0.2 1.74,1.74 0 0 0 -1.34,-1.65 0.78,0.78 0 0 1 0,0.71 0.36,0.36 0 0 1 -0.31,0.22 m -5.24,-0.63 a 5,5 0 0 0 -0.6,0.05 c -0.08,0 -0.11,0 -0.11,0.07 0,0.07 0,0.13 0.23,0.22 a 2.19,2.19 0 0 0 0.81,0.15 1.14,1.14 0 0 0 0.43,-0.08 c 0.13,-0.07 0.13,-0.11 0.13,-0.12 0,-0.01 0,-0.07 -0.21,-0.19 a 1.77,1.77 0 0 0 -0.68,-0.1 m 1.45,1.28 v 0 l -0.13,0.05 a 3.22,3.22 0 0 0 1.76,0.65 c 0.27,0 0.37,-0.09 0.4,-0.13 a 0.3,0.3 0 0 0 0,-0.23 6.33,6.33 0 0 0 -5.9,-3.15 c -0.29,0 -0.61,0 -0.92,0 -0.12,0 -0.2,0.06 -0.2,0.09 0,0.03 0.39,0.42 0.82,0.44 0.43,0.02 0.65,-0.06 1,-0.07 a 4.47,4.47 0 0 1 3.7,1.44 c 0.19,0.25 0.25,0.44 0.16,0.61 -0.09,0.17 -0.3,0.26 -0.65,0.26 m -2.39,10.5799997 h 0.31 c 0.33,0 0.36,-0.12 0.36,-0.21 0,-0.48 -0.26,-0.47 -0.35,-0.47 a 1.48,1.48 0 0 0 -0.37,0.07 0.36,0.36 0 0 0 -0.23,0.28 c 0,0.12 0.11,0.23 0.28,0.3 m 0.36,1.84 h 0.14 a 3.3,3.3 0 0 0 1.52,-2.11 1.38,1.38 0 0 0 -0.22,-1.09 1.81,1.81 0 0 0 -1.31,-0.48 h -0.17 a 0.49,0.49 0 0 0 -0.5,0.28 0.28,0.28 0 0 0 0.09,0.27 l 0.83,0.17 a 0.77,0.77 0 0 1 0.47,0.38 1.63,1.63 0 0 1 -0.23,1.14 c -0.6,0.74 -0.89,0.78 -0.77,1.26 0,0.22 0.11,0.22 0.15,0.22 m -0.22,-5.7 a 0.22,0.22 0 0 0 0.18,-0.1 c 0,-0.37 -0.06,-0.53 -0.14,-0.59 a 0.59,0.59 0 0 0 -0.35,0 c -0.16,0.07 -0.27,0.13 -0.29,0.2 -0.02,0.07 0,0.19 0.11,0.31 a 0.9,0.9 0 0 0 0.49,0.23 m -0.38,-1.9299997 a 0.19,0.19 0 0 0 -0.21,0.18 0.31,0.31 0 0 0 0.16,0.24 c 0.9,0 1.24,0.55 1.23,1.6899997 -0.12,0.55 -0.35,0.52 -0.55,0.52 a 1.1,1.1 0 0 1 -0.52,-0.14 0.27,0.27 0 0 0 -0.28,0.1 c 0,0 0,0.08 0,0.18 a 1.74,1.74 0 0 0 1.24,0.47 0.53,0.53 0 0 0 0.36,-0.11 c 0.35,-0.26 0.45,-0.75 0.27,-1.55 a 1.63,1.63 0 0 0 -1.71,-1.5799997 m -0.49,-1.58 c 0.1,0 0.14,-0.11 0.14,-0.19 0,-0.08 -0.14,-0.44 -0.52,-0.48 -0.09,0 -0.12,0.07 -0.12,0.08 0,0.01 0,0.14 0.2,0.41 a 0.5,0.5 0 0 0 0.3,0.18 m -1.03,-1.53 h -0.09 c -0.13,0 -0.18,0.11 -0.18,0.14 0,0.03 0.08,0.2 0.42,0.2 a 1.5,1.5 0 0 1 1.67,1 0.51,0.51 0 0 1 0,0.52 c -0.09,0.15 -0.18,0.2 -0.47,0.2 v 0 0.17 a 0.81,0.81 0 0 0 0.45,0.15 0.6,0.6 0 0 0 0.49,-0.24 0.78,0.78 0 0 0 0.06,-0.71 2.11,2.11 0 0 0 -2.28,-1.39 m -7.16,32.2999997 c 0.1,0 0.14,-0.24 0.15,-0.28 a 1.13,1.13 0 0 0 -0.23,-0.67 c -0.1,-0.11 -0.15,-0.13 -0.17,-0.13 l -0.15,0.13 a 1,1 0 0 0 0.13,0.75 0.38,0.38 0 0 0 0.27,0.2 m 3.34,4.09 h 0.07 a 0.88,0.88 0 0 0 0.09,-0.45 l -0.14,-0.93 a 0.38,0.38 0 0 0 -0.28,-0.23 c -0.11,0 -0.14,0.12 -0.17,0.19 a 1.66,1.66 0 0 0 0.24,1.31 0.33,0.33 0 0 0 0.19,0.13 m -0.08,2.09 a 1.34,1.34 0 0 0 0.55,0.12 0.61,0.61 0 0 0 0.49,-0.23 2.77,2.77 0 0 0 0.19,-2 v 0 a 1.62,1.62 0 0 0 -0.35,-0.51 h -0.09 a 0.59,0.59 0 0 0 -0.08,0.2 v 1.15 c 0,0.32 -0.1,0.48 -0.28,0.48 a 0.59,0.59 0 0 1 -0.35,-0.15 7.35,7.35 0 0 1 -0.85,-3.69 c 0,-0.46 -0.28,-0.74 -0.43,-0.74 -0.15,0 -0.15,0.13 -0.15,0.34 0,1.85 0.15,3.9 1.39,5 z m -4.61,-8.58 a 0.89,0.89 0 0 0 -0.42,-0.32 v 0 0 0.13 c 0.28,1.73 0.76,3.63 2.21,4.61 a 0.86,0.86 0 0 0 0.4,0.09 c 0.4,0 0.54,-0.41 0.58,-0.54 a 2.81,2.81 0 0 0 -0.28,-1.71 0.41,0.41 0 0 0 -0.31,-0.17 c -0.1,0 -0.15,0 -0.15,0.14 v 0.88 a 0.4,0.4 0 0 1 -0.1,0.31 l -0.14,0.07 v 0 a 0.52,0.52 0 0 1 -0.44,-0.1 4.21,4.21 0 0 1 -1.17,-2.88 0.77,0.77 0 0 0 -0.22,-0.51 m -2.93,-3.53 v 0.1 a 3.25,3.25 0 0 0 0.78,2.48 1.56,1.56 0 0 0 1,0.53 0.28,0.28 0 0 0 0.21,-0.1 0.64,0.64 0 0 0 0,-0.56 1,1 0 0 0 -0.52,-0.5 0.27,0.27 0 0 1 -0.24,0.16 c -0.3,0 -0.59,-0.47 -0.59,-1 a 1,1 0 0 0 -0.59,-1.13 m 1.46,4.78 c -0.14,-0.17 -0.17,-0.31 -0.11,-0.43 0.06,-0.12 0.26,-0.19 0.4,-0.2 h 0.11 v -0.08 a 1.89,1.89 0 0 0 -1.32,-0.73 c -0.13,0 -0.16,0 -0.18,0.12 -0.07,1 0.51,1.72 1.74,2.2 h 0.16 0.09 v -0.08 z m 2.66,5.4 c -0.07,0.12 -0.11,0.21 -0.09,0.25 0.02,0.04 0.22,0.14 0.47,0.14 a 2.1,2.1 0 0 0 1.18,-0.33 l 0.09,-0.14 v 0 c 0,-0.05 -0.18,-0.13 -0.57,-0.13 a 1.84,1.84 0 0 0 -1.07,0.28 m -1.76,1.87 h 0.07 a 3.24,3.24 0 0 0 0.72,-0.08 7.35,7.35 0 0 1 2.59,-0.58 c 0.19,0 0.31,-0.11 0.32,-0.24 0.01,-0.13 -0.09,-0.24 -0.31,-0.29 h -0.37 a 9.64,9.64 0 0 0 -2.38,0.5 h -0.16 a 0.23,0.23 0 0 1 -0.25,-0.13 c -0.08,-0.15 0,-0.38 0.15,-0.53 a 5.6,5.6 0 0 1 2.52,-1.53 c 0.19,-0.08 0.25,-0.22 0.22,-0.33 -0.03,-0.11 -0.05,-0.23 -0.34,-0.22 a 5.14,5.14 0 0 0 -3.31,2.14 1,1 0 0 0 -0.16,1 0.71,0.71 0 0 0 0.65,0.35 m -0.31,-4.89 v 0 a 0.2,0.2 0 0 0 -0.22,0.14 0.26,0.26 0 0 0 0.08,0.28 6.94,6.94 0 0 0 1.76,0.78 h 0.07 a 0.16,0.16 0 0 0 0.16,-0.14 0.25,0.25 0 0 0 -0.14,-0.28 7.43,7.43 0 0 0 -1.69,-0.78 m -1.18,-0.72 a 2,2 0 0 0 -0.65,0.65 0.81,0.81 0 0 0 0,0.71 c 0.33,0.68 1.67,1 2.32,1.18 h 0.1 c 0.18,0 0.31,-0.06 0.34,-0.16 l -0.08,-0.17 v 0 a 4.4,4.4 0 0 1 -1.7,-1.07 0.63,0.63 0 0 1 -0.06,-0.65 c 0.08,-0.17 0.31,-0.26 0.61,-0.26 a 2.48,2.48 0 0 1 0.87,0.15 v 0 l 0.15,-0.08 a 0.27,0.27 0 0 0 -0.06,-0.25 1.36,1.36 0 0 0 -0.67,-0.37 1.52,1.52 0 0 0 -1.17,0.31 m -1.09,2.56 a 0.6,0.6 0 0 1 0.18,0 5.93,5.93 0 0 1 1.95,0.71 c 0.16,0.07 0.32,0 0.34,-0.09 a 0.28,0.28 0 0 0 -0.17,-0.24 5.73,5.73 0 0 0 -2.95,-1 3.28,3.28 0 0 0 -0.84,0.13 0.79,0.79 0 0 0 -0.51,0.61 0.38,0.38 0 0 0 0.23,0.34 l 1.88,0.5 1.29,0.56 h 0.12 c 0.13,0 0.25,-0.07 0.27,-0.13 l -0.09,-0.21 a 5.17,5.17 0 0 0 -1.64,-0.74 c -0.39,-0.11 -0.39,-0.27 -0.38,-0.32 0.01,-0.05 0,-0.18 0.32,-0.18 m -2.23,-0.93 a 2.5,2.5 0 0 1 1.13,-0.78 4.14,4.14 0 0 0 1.28,-1 2.21,2.21 0 0 0 -0.55,-2.79 0.48,0.48 0 0 0 -0.26,-0.09 0.38,0.38 0 0 0 -0.28,0.17 0.65,0.65 0 0 0 -0.06,0.51 l 0.43,0.73 a 0.93,0.93 0 0 1 -0.44,1.3 7.78,7.78 0 0 0 -2.07,1.41 0.69,0.69 0 0 1 -0.55,0.35 0.65,0.65 0 0 1 -0.44,-0.17 l -0.75,-0.65 a 0.5,0.5 0 0 1 -0.11,-0.49 0.34,0.34 0 0 1 0.33,-0.18 0.61,0.61 0 0 1 0.23,0 l 0.54,0.24 0.16,0.06 c 0,0 0.1,0 0.13,-0.16 a 1.07,1.07 0 0 0 -0.71,-1.1 1.7,1.7 0 0 0 -0.42,-0.06 1.89,1.89 0 0 0 -1.5,1 c -0.39,0.59 0.43,1.18 1.29,1.81 0.23,0.16 0.52,0.38 0.76,0.57 a 1.05,1.05 0 0 0 0.5,0.15 0.72,0.72 0 0 0 0.37,-0.11 3,3 0 0 0 1,-0.78 m -4.48,-4.92 c 0.13,-0.13 0.13,-0.18 0.13,-0.18 l -0.11,-0.06 a 1.53,1.53 0 0 0 -0.43,0 1.4,1.4 0 0 0 -1.21,0.56 1.16,1.16 0 0 0 0.07,1.17 1,1 0 0 1 0.12,1.07 1.43,1.43 0 0 0 0,1 1.39,1.39 0 0 0 1,0.8 0.62,0.62 0 0 0 0.3,-0.06 l -0.07,-0.1 a 0.59,0.59 0 0 1 0,-0.88 0.29,0.29 0 0 0 0.14,-0.22 c 0,-0.09 -0.06,-0.2 -0.19,-0.33 a 1.8,1.8 0 0 1 0.23,-2.71 m -1.54,4.89 h 0.17 c 0.24,-0.1 0.24,-0.17 0.24,-0.17 0,0 0,0 -0.12,-0.13 a 1.36,1.36 0 0 1 -0.67,-1.56 1.18,1.18 0 0 0 -0.18,-1.16 1.19,1.19 0 0 1 -0.24,-1.09 v -0.07 a 1,1 0 0 0 -0.26,0.08 0.75,0.75 0 0 0 -0.38,0.45 1.79,1.79 0 0 0 0.32,1.19 1.08,1.08 0 0 1 0.25,1 1.64,1.64 0 0 0 0.41,1.27 0.66,0.66 0 0 0 0.5,0.24 m -1.1,0.34 a 0.49,0.49 0 0 0 0.16,0 v 0 a 1.54,1.54 0 0 1 -0.52,-1.38 2.82,2.82 0 0 0 -0.61,-1.71 0.63,0.63 0 0 0 -0.13,0.21 0.76,0.76 0 0 0 0,0.62 1.21,1.21 0 0 1 0.23,1 c -0.09,0.79 0.2,1.2 0.89,1.33 m 3.22,-3.08 a 1.07,1.07 0 0 0 0.58,-0.24 5,5 0 0 0 0.43,-0.37 0.2,0.2 0 0 0 0,-0.32 1,1 0 0 1 -0.24,-1.24 0.33,0.33 0 0 0 0,-0.31 c 0,0 0,0 -0.12,0 h -0.07 a 1.3,1.3 0 0 0 -0.41,0.24 v 0 a 1.62,1.62 0 0 0 -0.72,1.74 c 0.07,0.35 0.24,0.51 0.55,0.51 z m -0.6,2.59 -0.23,0.07 v 0.13 a 1,1 0 0 0 1,0.54 2.44,2.44 0 0 0 0.39,0 l 0.08,-0.06 c 0,0 0,-0.07 -0.06,-0.15 a 1.51,1.51 0 0 0 -1.19,-0.48 m -0.17,1.03 a 0.33,0.33 0 0 0 -0.08,-0.21 1.64,1.64 0 0 0 -1,-0.28 h -0.14 c -0.09,0 -0.11,0.08 -0.11,0.09 0,0.01 0,0.09 0.08,0.18 a 1.38,1.38 0 0 0 0.94,0.31 h 0.14 z m -1.64,0.33 a 1.71,1.71 0 0 0 0.25,0 c 0,0 0.07,-0.06 0,-0.16 a 1.87,1.87 0 0 0 -0.77,-0.2 c -0.08,0 -0.09,0 -0.09,0 a 0.6,0.6 0 0 0 0.57,0.35 m -8.54,-6.87 a 3.22,3.22 0 0 1 1.63,2.9 c 0.22,2.91 1.68,4.38 4.34,4.33 v 0 a 2.76,2.76 0 0 0 1.19,-0.32 c 0.1,0 0.12,-0.09 0.12,-0.13 0,-0.04 -0.06,-0.3 -0.27,-0.53 a 0.78,0.78 0 0 0 -0.63,-0.3 1.43,1.43 0 0 0 -0.36,0.07 h -0.05 a 2.32,2.32 0 0 1 -0.71,0.15 2,2 0 0 1 -0.59,-0.1 3,3 0 0 1 -2.32,-2.93 c 0,-1.65 -0.4,-2.77 -1.32,-3.33 a 7.72,7.72 0 0 1 -2.7,-2.38 3.27,3.27 0 0 1 0.16,-3.46 c 0.09,-0.2 0.21,-0.42 0.31,-0.67 a 3.37,3.37 0 0 0 0.28,-1.44 c 0,-1.46 -0.38,-2.26 -1.15,-2.47 h -0.15 c -0.08,0 -0.22,0 -0.26,0.11 -0.04,0.11 0,0.27 0.27,0.55 1,0.78 0.94,2.12 -0.07,4.32 -0.62,1.38 -0.69,2.47 -0.2,3.26 a 8.87,8.87 0 0 0 2.46,2.36 m -0.67,-4.92 a 2.07,2.07 0 0 0 0.48,2.28 20,20 0 0 0 2.4,1.72 3.51,3.51 0 0 1 1.39,2.7 v 0 c 0,0.25 0.08,0.51 0.14,0.77 a 2,2 0 0 0 1.8,1.65 h 0.13 a 0.34,0.34 0 0 0 0.36,-0.23 c 0,-0.13 -0.11,-0.22 -0.2,-0.26 -0.95,-0.35 -1.36,-0.74 -1.45,-1.36 -0.3,-1.39 -0.73,-3 -1.4,-3.55 a 19,19 0 0 1 -2.38,-1.71 1,1 0 0 1 -0.51,-0.59 c -0.25,-0.73 0.08,-1.95 1,-3.74 a 3.86,3.86 0 0 0 -2.25,-4.33 0.55,0.55 0 0 0 -0.24,0 c -0.13,0 -0.15,0 -0.16,0.07 a 0.38,0.38 0 0 0 0.15,0.36 c 1.66,1.28 2.69,2.47 0.8,6.26 m 7.63,-8.92 a 8,8 0 0 0 -4.62,8.5 5.55,5.55 0 0 0 5,4.67 h 4.46 a 0.76,0.76 0 0 1 0.67,0.39 c 0.1,0.17 0.14,0.48 -0.16,1 a 0.45,0.45 0 0 0 -0.1,0.35 h 0.11 a 0.66,0.66 0 0 0 0.39,-0.18 1.57,1.57 0 0 0 0.53,-1.7 1.39,1.39 0 0 0 -1.37,-0.86 l -2,0.06 c -2.07,0 -3.14,-0.1 -3.66,-0.46 a 5,5 0 0 1 -2.94,-4.4 c -0.09,-2.53 1.53,-5.12 4.24,-6.75 1.26,-0.8 2.74,-1.82 3,-2.56 a 0.73,0.73 0 0 0 0,-0.56 h -0.09 a 0.48,0.48 0 0 0 -0.27,0.13 9.72,9.72 0 0 1 -3.2,2.4 m 4.53,9.76 a 16.08,16.08 0 0 0 -1.84,0.14 h -0.17 a 11.17,11.17 0 0 1 -1.16,0.12 c -1.09,0 -1.86,-0.37 -2.31,-2.37 0,-0.27 -0.06,-0.37 -0.16,-0.44 a 0.53,0.53 0 0 0 -0.24,0.46 c 0,2.61 1.78,2.66 4.28,2.72 0.72,0 1.54,0 2.39,0.14 a 3.32,3.32 0 0 1 2.5,2.29 3,3 0 0 1 -1.23,2.94 c -0.23,0.21 -0.32,0.41 -0.26,0.57 a 0.62,0.62 0 0 0 0.59,0.29 0.64,0.64 0 0 0 0.37,-0.1 3.64,3.64 0 0 0 1.42,-3.75 4,4 0 0 0 -3.39,-3 c -0.27,0 -0.52,0 -0.77,0 m -1.59,-15.18 a 0.53,0.53 0 0 0 -0.27,-0.08 0.44,0.44 0 0 0 -0.41,0.29 0.73,0.73 0 0 0 0.18,0.78 3.91,3.91 0 0 1 1.61,2 2.52,2.52 0 0 1 -0.56,2.15 l -4.02,3.69 c -2.67,2.56 -3,4.87 -1.15,7.06 l 0.14,0.07 a 0.69,0.69 0 0 0 -0.1,-0.31 c -1.44,-3 0.5,-4.65 3,-6.78 v 0 a 26.78,26.78 0 0 0 3.57,-3.52 c 0.92,-1.86 0.27,-3.62 -2,-5.37 m -13.6,8.26 0.24,1.28 a 0.45,0.45 0 0 0 0.41,0.32 0.34,0.34 0 0 0 0.28,-0.14 0.56,0.56 0 0 0 0.07,-0.43 1.33,1.33 0 0 1 0.08,-1.44 l 0.46,-0.44 a 0.45,0.45 0 0 0 0.05,-0.43 0.4,0.4 0 0 0 -0.35,-0.2 h -0.2 l -0.61,0.53 a 0.85,0.85 0 0 0 -0.43,1 m -1.29,0.79 a 0.59,0.59 0 0 0 0.44,0.29 0.23,0.23 0 0 0 0.2,-0.11 0.77,0.77 0 0 0 0.06,-0.65 c -0.41,-1 0,-1.27 0.53,-1.76 l 0.09,-0.06 a 0.42,0.42 0 0 0 0,-0.39 0.32,0.32 0 0 0 -0.31,-0.16 0.57,0.57 0 0 0 -0.27,0.07 c -1.08,0.66 -1.25,1.32 -0.77,2.77 m -1.51,-0.66 c 0,0.17 0.09,0.28 0.22,0.34 h 0.12 a 0.45,0.45 0 0 0 0.36,-0.22 0.47,0.47 0 0 0 0,-0.43 c -0.41,-0.7 -0.11,-1 0.24,-1.4 v 0 a 3,3 0 0 0 0.32,-0.37 0.43,0.43 0 0 0 0.13,-0.39 0.31,0.31 0 0 0 -0.34,-0.27 0.54,0.54 0 0 0 -0.34,0.12 4.87,4.87 0 0 1 -0.74,0.58 l -0.12,0.08 -0.13,0.09 -0.17,0.09 c -0.07,0 -0.26,0.18 -0.07,0.58 a 7.52,7.52 0 0 1 0.51,1.19 m 18.15,-9.21 a 1.05,1.05 0 0 0 -0.46,-0.12 c -0.17,0 -0.29,0.06 -0.33,0.14 -0.04,0.08 0,0.17 0.09,0.22 2.07,1.48 2.6,3.32 1.58,5.47 a 0.34,0.34 0 0 0 0,0.27 h 0.06 a 0.66,0.66 0 0 0 0.35,-0.17 c 1.33,-2.12 0.91,-4 -1.29,-5.83 m 5.37,2.05 a 1.38,1.38 0 0 0 1,0.29 1.48,1.48 0 0 0 1.44,-1 l 0.48,-2 a 0.27,0.27 0 0 0 0,-0.24 l -0.16,-0.06 c -0.19,0 -0.44,0.19 -0.53,0.58 a 4.69,4.69 0 0 1 -0.67,1.8 0.47,0.47 0 0 1 -0.39,0.24 0.31,0.31 0 0 1 -0.3,-0.16 0.32,0.32 0 0 1 0,-0.36 2.51,2.51 0 0 0 0.45,-1 0.23,0.23 0 0 0 0,-0.23 h -0.09 a 0.38,0.38 0 0 0 -0.23,0.14 8,8 0 0 1 -0.94,1.38 c -0.17,0.27 -0.19,0.46 0,0.62 m 3.98,-7.3299997 a 0.24,0.24 0 0 0 0.2,0 l 0.07,-0.1 a 0.28,0.28 0 0 0 -0.16,-0.34 17.91,17.91 0 0 0 -2.15,-0.88 c -0.09,0 -0.11,0 -0.12,0.05 a 0.18,0.18 0 0 0 0.11,0.19 19.64,19.64 0 0 1 2,1 m 0.9,5.1999997 a 10.34,10.34 0 0 0 0,-1.85 c 0,-0.11 -0.07,-0.11 -0.1,-0.11 a 0.21,0.21 0 0 0 -0.17,0.18 9.82,9.82 0 0 1 -0.21,1.78 0.27,0.27 0 0 0 0,0.24 h 0.13 a 0.32,0.32 0 0 0 0.32,-0.29 m -1.04,0.79 0.23,-1.75 a 0.27,0.27 0 0 0 -0.09,-0.27 c 0,0 -0.12,0.06 -0.2,0.22 -0.26,0.56 -0.91,2.41 -0.54,3.08 a 0.43,0.43 0 0 0 0.34,0.22 3.17,3.17 0 0 0 0.52,0 1.91,1.91 0 0 0 1.48,-0.54 c 0.75,-0.81 0.63,-2.45 0.53,-3.9 v -0.3 c -0.06,-0.28 -0.16,-0.4 -0.24,-0.4 l -0.14,0.09 a 0.53,0.53 0 0 0 -0.12,0.41 7.18,7.18 0 0 1 -0.36,3.12 1.15,1.15 0 0 1 -0.86,0.66 c -0.24,0 -0.5,-0.16 -0.52,-0.64 m 6.35,-2.83 c 0.19,0.37 0.41,-0.12 0.37,-0.26 -0.43,-1.43 -1.78,-3.5899997 -2.1,-3.4499997 a 16.73,16.73 0 0 1 1.73,3.7099997 m -1.84,0.9 a 1.08,1.08 0 0 0 0,-0.4 9.6,9.6 0 0 0 -1.26,-3.1799997 v 0 0.1599997 a 19.06,19.06 0 0 1 0.92,3.61 c 0,0 0.26,0.31 0.34,-0.14 m -1.69,-2.48 h -0.11 a 0.4,0.4 0 0 0 0,0.22 17.35,17.35 0 0 1 0.39,4.21 0.33,0.33 0 0 0 0.09,0.27 0.79,0.79 0 0 0 0.58,0.15 4.65,4.65 0 0 0 1.5,-0.67 1.16,1.16 0 0 0 0.61,-1.08 8.62,8.62 0 0 0 -1.85,-4.6699997 c -0.09,-0.09 -0.14,-0.11 -0.18,-0.11 v 0 a 0.46,0.46 0 0 0 0.05,0.32 c 1.24,2.2799997 1.56,3.6999997 1,4.6199997 a 1.37,1.37 0 0 1 -0.8,0.43 c -0.19,0 -0.43,-0.1 -0.52,-0.6 a 10.18,10.18 0 0 0 -0.64,-3.06 z m 4.16,-1.07 a 5.21,5.21 0 0 0 -2.13,-2.1999997 c -0.22,-0.11 -0.26,0.09 -0.22,0.13 a 7.91,7.91 0 0 1 2.77,4.3299997 1.16,1.16 0 0 1 -0.21,0.94 l -0.13,0.12 a 2.94,2.94 0 0 0 -0.39,0.4 0.33,0.33 0 0 0 0,0.39 0.44,0.44 0 0 0 0.43,0.26 h 0.11 l 1.46,-1.11 a 0.59,0.59 0 0 0 0.17,-0.43 0.5,0.5 0 0 0 -0.13,-0.33 5.68,5.68 0 0 1 -1.72,-2.5 m -0.52,-4.8499997 a 0.7,0.7 0 0 0 0.48,0.15 0.71,0.71 0 0 0 0.43,-0.12 l -0.07,-0.08 a 3.5,3.5 0 0 0 -3.31,-0.91 c -0.31,0.16 2.1,0.1 2.47,1 m -4.21,-3.02 v 0 c 0.54,0 0.75,0.21 0.76,0.4 0.01,0.19 -0.18,0.46 -0.76,0.51 h -0.11 a 0.53,0.53 0 0 0 0.18,0.1 4.54,4.54 0 0 0 0.6,0 1.11,1.11 0 0 0 1,-0.38 0.38,0.38 0 0 0 0,-0.42 1,1 0 0 0 -1,-0.42 2.59,2.59 0 0 0 -0.61,0.1 m -0.48,2.74 c 3,0.69 5.19,1.67 5.76,4.22 0,0.9999997 0.24,1.6799997 0.61,1.9499997 l 0.09,0.06 v -0.23 c 0.06,-2.5399997 -0.75,-4.2399997 -2.42,-5.0699997 a 12.23,12.23 0 0 0 -3.71,-1.5 1.22,1.22 0 0 1 -1.09,-1.37 1.62,1.62 0 0 1 1.5,-1.6 h 0.18 c 0.27,0 0.41,-0.13 0.41,-0.2 0,-0.07 -0.06,-0.1 -0.17,-0.12999997 h -0.37 c -1,0 -2,0.24999997 -2.11,1.85999997 -0.15,1.19 0.27,1.82 1.3,2 m 11.39,66.0299997 a 0.91,0.91 0 0 0 -0.53,0.19 1.94,1.94 0 0 1 -1,0.27 h -0.22 c -3.16,0 -6.29,0 -9.56,-0.19 a 2.44,2.44 0 0 1 -0.94,-0.27 1.7,1.7 0 0 0 -0.64,-0.16 0.4,0.4 0 0 0 -0.32,0.13 0.63,0.63 0 0 0 0,0.54 c 0.64,0.92 5.94,0.83 7.93,0.8 h 2 c 0.69,0 1.37,0 1.72,0 a 3.62,3.62 0 0 0 1.8,-0.53 0.37,0.37 0 0 0 0.19,-0.43 0.51,0.51 0 0 0 -0.51,-0.34 m -12.42,-2.09 a 0.54,0.54 0 0 0 -0.49,-0.34 0.27,0.27 0 0 0 -0.18,0.07 l -0.41,0.73 a 0.63,0.63 0 0 1 -0.57,0.37 0.69,0.69 0 0 1 -0.55,-0.26 0.66,0.66 0 0 1 -0.11,-0.6 1.32,1.32 0 0 1 0.53,-0.76 1.09,1.09 0 0 0 0,-1 3.51,3.51 0 0 1 -0.22,-2.4 l 0.29,-1.05 a 0.84,0.84 0 0 0 -0.29,-1 0.76,0.76 0 0 1 -0.37,-0.88 0.69,0.69 0 0 1 0.62,-0.5 0.72,0.72 0 0 1 0.29,0.06 0.81,0.81 0 0 1 0.46,0.54 1.63,1.63 0 0 0 0.11,0.23 0.64,0.64 0 0 0 0.5,0.28 0.3,0.3 0 0 0 0.25,-0.12 0.69,0.69 0 0 0 0,-0.59 1.77,1.77 0 0 0 -1.86,-1.29 1.44,1.44 0 0 0 -1.05,0.42 1.36,1.36 0 0 0 -0.36,1 1.18,1.18 0 0 0 0.39,1 v 0 a 1.39,1.39 0 0 1 0,1.54 2.62,2.62 0 0 0 0,2.11 2.22,2.22 0 0 1 0,1.74 l -0.13,0.25 a 1.12,1.12 0 0 0 -0.18,1 1.43,1.43 0 0 0 1.52,1.21 2.18,2.18 0 0 0 1.07,-0.32 2,2 0 0 0 0.75,-1.41 m 15.99,-6.9 a 1.52,1.52 0 0 0 -1.54,-1 1.69,1.69 0 0 0 -1.74,1.63 0.42,0.42 0 0 0 0.09,0.32 0.46,0.46 0 0 0 0.33,0.13 0.4,0.4 0 0 0 0.38,-0.26 c 0.14,-0.79 0.61,-0.88 0.8,-0.89 a 0.82,0.82 0 0 1 0.77,0.53 0.67,0.67 0 0 1 -0.28,0.77 0.89,0.89 0 0 0 -0.39,1.27 2.94,2.94 0 0 1 0,3.06 1,1 0 0 0 0.58,1.41 v 0 a 0.56,0.56 0 0 1 0.09,0.61 0.79,0.79 0 0 1 -1.48,-0.19 0.49,0.49 0 0 0 -0.47,-0.44 0.41,0.41 0 0 0 -0.35,0.18 0.39,0.39 0 0 0 -0.06,0.36 c 0.49,1 1.09,1.48 1.84,1.47 a 2.58,2.58 0 0 0 1.06,-0.28 1.41,1.41 0 0 0 0.55,-1 1.36,1.36 0 0 0 -0.33,-1 c -0.39,-0.21 -0.46,-0.69 -0.23,-1.42 a 2.68,2.68 0 0 0 0,-2.49 1.21,1.21 0 0 1 0.19,-1.39 1.31,1.31 0 0 0 0.19,-1.38 m -12.36,0.14 h 0.23 0.24 c 0.41,0 0.44,-0.34 0.44,-0.42 a 0.38,0.38 0 0 0 -0.3,-0.38 5.86,5.86 0 0 0 -0.93,0 v 0 a 5.68,5.68 0 0 1 -2,-0.22 l -0.25,-0.09 a 0.7,0.7 0 0 0 -0.38,-0.09 c -0.12,0 -0.29,0 -0.35,0.14 a 0.59,0.59 0 0 0 0,0.54 c 0.35,0.44 1.13,0.65 2.35,0.62 0.31,0 0.63,0 0.9,0 m 4.31,4.89 v 0.06 c 0.54,1.46 1.2,3.29 2.64,3.32 h 0.17 v 0 a 5.65,5.65 0 0 1 -1.72,-2.9 c -0.37,-1.11 -0.69,-2.07 -1.84,-2.39 h -0.15 a 0.34,0.34 0 0 0 -0.14,0 l 0.09,0.15 c 0.4,0.21 0.65,0.91 1,1.8 m -4.38,-4.08 a 1.38,1.38 0 0 0 -0.34,0.05 0.5,0.5 0 0 0 0.15,0.16 c 0.88,0.48 1.43,1.93 2,3.45 0.69,1.84 1.4,3.74 2.71,3.71 v 0 h 0.28 v 0 c -0.78,-0.37 -1.27,-1.72 -1.79,-3.15 -0.69,-1.84 -1.45,-3.92 -3,-4.15 m -2.35,0.27 c 0.83,0.53 1.31,1.85 1.81,3.25 0.6,1.69 1.22,3.42 2.5,3.74 a 2,2 0 0 0 0.5,0.09 h 0.08 a 0.59,0.59 0 0 0 -0.16,-0.15 c -0.79,-0.27 -1.22,-1.56 -1.73,-3.06 -0.58,-1.77 -1.25,-3.77 -2.57,-4.18 h -0.43 a 0.47,0.47 0 0 0 -0.27,0 c 0,0 0,0.13 0.27,0.3 m -17.23,-55.1099997 a 0.38,0.38 0 0 0 0,0.38 1.31,1.31 0 0 1 0.23,1.36 v 0 a 1.31,1.31 0 0 0 0.49,-0.8 1.29,1.29 0 0 0 -0.27,-0.93 c -0.08,-0.1 -0.2,-0.23 -0.32,-0.2 a 0.34,0.34 0 0 0 -0.2,0.22 m -2.63,3.0699997 a 0.82,0.82 0 0 0 0,0.69 0.58,0.58 0 0 0 0.41,0.3 2,2 0 0 0 0.41,0 5.76,5.76 0 0 0 3.24,-1.55 l 0.1,-0.15 h -0.11 a 7,7 0 0 1 -2.83,1 0.49,0.49 0 0 1 -0.38,-0.27 c -0.08,-0.2 0,-0.48 0.26,-0.86 a 8.39,8.39 0 0 0 1.07,-1.1499997 0.28,0.28 0 0 0 0,-0.36 1.29,1.29 0 0 1 0,-0.4 1.36,1.36 0 0 1 0,-0.29 1.07,1.07 0 0 1 0.24,-0.61 2.39,2.39 0 0 1 0.54,-0.45 0.39,0.39 0 0 0 0.16,-0.45 0.61,0.61 0 0 0 -0.56,-0.4 c -0.66,0.25 -0.9,0.58 -0.81,1.14 a 1.7,1.7 0 0 1 -0.33,1.53 9.07,9.07 0 0 0 -1.37,2.1999997 m 3.18,2.14 h -0.1 a 3.9,3.9 0 0 1 -1.15,0.21 1.83,1.83 0 0 1 -1.4,-0.52 h -0.13 l -0.12,0.08 a 0.39,0.39 0 0 0 0,0.37 1.86,1.86 0 0 0 1.38,0.71 2.39,2.39 0 0 0 1.4,-0.69 c 0.11,-0.08 0.13,-0.17 0.12,-0.2 m -4.59,1.8 c 0.26,0.77 0.63,1.18 1.16,1.26 h 2.25 a 0.47,0.47 0 0 0 0.36,-0.44 0.39,0.39 0 0 0 -0.26,-0.39 h -1.79 c -0.68,0 -1,-1 -1.27,-1.91 -0.54,-2 0.44,-3.47 1.41,-4.6699997 l 0.15,-0.21 h -0.13 v 0 a 0.37,0.37 0 0 1 -0.18,-0.25 0.58,0.58 0 0 1 0.19,-0.41 l 0.31,-0.28 v -0.1 l -0.18,-0.06 v 0 a 9.47,9.47 0 0 0 -2.67,2.4299997 1.49,1.49 0 0 0 -0.18,1.43 z m 25.88,-11.5999997 0.79,0.34 c 0.43,0.22 0.87,0.46 1.29,0.71 1.64,0.93 2.67,2 3.37,5.25 l 0.08,0.3399997 c 0.68,3.11 1.1,5 -2,7.49 a 0.78,0.78 0 0 0 -0.11,0.79 0.39,0.39 0 0 0 0.35,0.25 v 0 a 5.91,5.91 0 0 0 2.46,-2.34 c 1.82,-2.46 -0.19,-7.9999997 -0.85,-9.8399997 a 4.77,4.77 0 0 0 -2.72,-2.67 l -3.47,-1.66 a 1.29,1.29 0 0 1 -0.53,-1.1 c 0,-0.41999997 0.32,-0.49999997 0.78,-0.74999997 a 3.34,3.34 0 0 1 1.5,-0.3 c 0.42,0 0.85,0 1.28,0.06 a 30.6,30.6 0 0 1 15.61,5.17999997 v 0 a 0.6,0.6 0 0 1 0.12,0.63 c -0.12,0.26 -0.48,0.39 -1.18,0.42 a 1.27,1.27 0 0 1 -1,-0.38 l -0.45,-0.73 c 0,-0.12 -0.09,-0.17 -0.14,-0.17 -0.05,0 -0.13,0.06 -0.17,0.19 l -0.18,1 c 0,0.15 0,0.21 0.17,0.23 a 6.86,6.86 0 0 0 2.22,0.36 5.74,5.74 0 0 0 3.61,-1.3 c 0.16,-0.23 0.23,-0.42 0.18,-0.51 -0.05,-0.09 -0.27,-0.19 -0.59,-0.21 h -0.37 a 5.41,5.41 0 0 1 -3.2,-1 32.12,32.12 0 0 0 -16.59,-4.27999997 3,3 0 0 0 -1.45,0.27 1.81,1.81 0 0 0 -1,1.20999997 1.73,1.73 0 0 0 0.43,1.45 3.91,3.91 0 0 0 1.72,1 m 8.91,27.0699997 h -0.06 a 1.2,1.2 0 0 0 -0.07,0.8 12.8,12.8 0 0 1 1.75,4.8 l 0.06,0.09 0.12,-0.12 a 13.25,13.25 0 0 0 -1.76,-5.57 z m 1.22,9.87 c 0,0.18 0.09,0.46 0.33,0.46 a 0.82,0.82 0 0 0 0.55,-0.32 c 1.45,-1.88 1,-7.78 -0.88,-10.7 l -0.13,-0.06 a 0.28,0.28 0 0 0 -0.21,0.14 0.53,0.53 0 0 0 0,0.52 c 1.43,3.26 1.91,5.72 1.5,7.78 -0.07,0.23 -0.18,0.54 -0.43,0.55 -0.25,0.01 -0.36,-0.13 -0.49,-0.75 a 14.46,14.46 0 0 0 -2.14,-5.95 1.87,1.87 0 0 0 0,1.17 18.75,18.75 0 0 1 1.85,7.16 m -2.33,-17.5 a 0.27,0.27 0 0 0 0.23,-0.15 0.27,0.27 0 0 0 0,-0.26 l -0.75,-0.68 h -0.11 a 0.23,0.23 0 0 0 -0.19,0.13 0.31,0.31 0 0 0 0,0.28 l 0.73,0.69 z m -1.52,-0.44 a 0.21,0.21 0 0 0 -0.18,0.11 0.56,0.56 0 0 0 0,0.5 l 1.31,1.53 a 0.69,0.69 0 0 0 0.51,0.2 2.12,2.12 0 0 0 1.53,-1.18 1.32,1.32 0 0 0 0.13,-1.31 8.45,8.45 0 0 0 -1.3,-1.66 l -0.12,-0.07 c 0,0 -0.12,0.07 -0.18,0.17 a 0.61,0.61 0 0 0 0,0.57 l 0.61,0.8 a 1.12,1.12 0 0 1 -0.1,1 0.77,0.77 0 0 1 -1.21,0.24 l -0.8,-0.87 z m 3.19,-3.4 a 0.31,0.31 0 0 0 0.09,0.3 l 0.62,0.45 0.16,0.06 c 0.11,0 0.16,-0.11 0.18,-0.15 a 0.32,0.32 0 0 0 -0.09,-0.34 l -0.6,-0.46 h -0.11 a 0.28,0.28 0 0 0 -0.25,0.17 m -0.69,1.03 a 0.43,0.43 0 0 0 0.08,0.44 l 1.74,1.28 a 0.67,0.67 0 0 0 0.35,0.1 1.13,1.13 0 0 0 0.7,-0.36 l 0.23,-0.37 c 0.46,-0.73 0.79,-1.26 0.26,-2 a 4.69,4.69 0 0 0 -1.7,-1.45 0.22,0.22 0 0 0 -0.16,0.14 0.58,0.58 0 0 0 0.06,0.55 l 0.89,0.94 a 0.93,0.93 0 0 1 0,0.94 0.88,0.88 0 0 1 -0.71,0.5 0.66,0.66 0 0 1 -0.4,-0.13 l -1,-0.7 -0.14,-0.08 c -0.09,0 -0.18,0.09 -0.22,0.23 m 3.57,-3.81 a 0.29,0.29 0 0 0 0.28,-0.19 0.3,0.3 0 0 0 -0.08,-0.32 l -1.14,-0.65 -0.16,0.11 v 0.24 l 1,0.81 z m -1.39,0.61 1.73,1.26 a 1,1 0 0 0 0.55,0.19 0.7,0.7 0 0 0 0.43,-0.15 2.76,2.76 0 0 0 0.79,-1.11 1.34,1.34 0 0 0 -0.56,-1.61 l -2.35,-1.72 h -0.11 l -0.07,0.06 a 0.57,0.57 0 0 0 0.09,0.54 11.64,11.64 0 0 1 1.84,1.5 1,1 0 0 1 0.15,1 0.59,0.59 0 0 1 -0.5,0.37 0.72,0.72 0 0 1 -0.46,-0.18 l -1.41,-0.86 c -0.07,0 -0.13,0.07 -0.17,0.17 a 0.49,0.49 0 0 0 0.08,0.54 m 2.7,-4.42 h 0.2 c 0.18,0 0.39,-0.09 0.35,-0.14 -0.4,-0.6 -3.49,-2.16 -3.49,-2.16 a 0.65,0.65 0 0 0 0.13,0.33 15.1,15.1 0 0 0 2.81,1.97 m -3.32,-4.0799997 -0.07,0.08 a 0.51,0.51 0 0 0 0.21,0.52 c 0.39,0.27 1,0.6 1.62,0.9999997 1.27,0.73 2.59,1.48 2.84,2 a 1.19,1.19 0 0 1 0.06,1.17 0.67,0.67 0 0 1 -0.6,0.38 1,1 0 0 1 -0.48,-0.13 l -2.85,-1.65 h -0.07 v 0 a 1.39,1.39 0 0 0 0.43,1 14.78,14.78 0 0 0 2.06,1.4 l 0.2,0.1 a 2.76,2.76 0 0 0 1.14,0.44 0.71,0.71 0 0 0 0.43,-0.14 2.42,2.42 0 0 0 0.47,-2.53 19.59,19.59 0 0 0 -5.34,-3.5499997 m -1.29,-3.52 a 2.08,2.08 0 0 0 0.68,0.64 22.27,22.27 0 0 1 5.67,3 0.61,0.61 0 0 1 0.18,0.67 0.55,0.55 0 0 1 -0.51,0.32 1.23,1.23 0 0 1 -0.55,-0.15 17.21,17.21 0 0 0 -4.63,-2.49 l -0.06,0.09 a 0.45,0.45 0 0 0 0.31,0.46 25.12,25.12 0 0 1 5,2.9199997 1.24,1.24 0 0 0 0.68,0.25 0.65,0.65 0 0 0 0.54,-0.35 c 0.35,-0.9999997 -0.08,-1.8599997 -1.33,-2.7299997 a 28,28 0 0 0 -5.86,-2.56 z m -0.21,22.3899997 0.14,0.08 0.16,-0.09 a 0.28,0.28 0 0 0 0,-0.24 l -0.77,-1.34 -0.15,-0.09 a 0.34,0.34 0 0 0 -0.25,0.14 v 0.19 z m 1.99,-0.58 -1.53,-1.75 h -0.15 a 0.21,0.21 0 0 0 -0.19,0.12 0.4,0.4 0 0 0 0,0.37 l 1,1.1 a 0.63,0.63 0 0 1 0.23,0.51 c 0,0.35 -0.33,0.63 -0.65,0.9 v 0 a 1.67,1.67 0 0 0 -0.49,0.52 0.37,0.37 0 0 0 0,0.37 0.25,0.25 0 0 0 0.22,0.11 l 0.17,-0.05 1.26,-1.06 a 0.84,0.84 0 0 0 0.19,-1.15 m 1.26,-1.87 a 0.56,0.56 0 0 0 0.33,0.13 0.36,0.36 0 0 0 0.32,-0.19 0.4,0.4 0 0 0 -0.12,-0.44 7.78,7.78 0 0 0 -1.65,-1.54 0.43,0.43 0 0 0 -0.23,-0.07 0.3,0.3 0 0 0 -0.3,0.29 c 0,0.13 0.1,0.25 0.27,0.43 0.53,0.57 0.91,0.94 1.38,1.39 m 0.89,1.97 a 2,2 0 0 0 1.58,-0.77 1.12,1.12 0 0 0 0.1,-1.08 14.77,14.77 0 0 0 -2.62,-2.93 h -0.12 a 0.23,0.23 0 0 0 -0.19,0.15 0.29,0.29 0 0 0 0,0.28 10.88,10.88 0 0 1 2,2.31 0.92,0.92 0 0 1 -0.07,0.87 1.12,1.12 0 0 1 -1.46,0.3 13.41,13.41 0 0 1 -2,-1.85 h -0.12 a 0.24,0.24 0 0 0 -0.19,0.13 0.44,0.44 0 0 0 0,0.37 6.9,6.9 0 0 0 2.47,2.19 1.57,1.57 0 0 0 0.63,0.11 m 0.27,-6.74 3.19,3 0.23,0.07 0.16,-0.07 v -0.11 a 13,13 0 0 0 -3.68,-3.56 0.82,0.82 0 0 0 0.15,0.67 m 1.4,-1.47 a 0.48,0.48 0 0 0 -0.26,-0.09 0.31,0.31 0 0 0 -0.25,0.16 0.46,0.46 0 0 0 0.13,0.44 15.66,15.66 0 0 1 3.33,3.59 0.85,0.85 0 0 1 0.06,0.85 0.91,0.91 0 0 1 -0.79,0.4 1.62,1.62 0 0 1 -0.77,-0.21 20.06,20.06 0 0 1 -3.17,-2.74 l -0.23,-0.22 a 0.37,0.37 0 0 0 -0.15,0.17 0.54,0.54 0 0 0 0,0.51 c 1.76,1.94 3,3 3.54,3.24 a 6,6 0 0 0 1.3,0.16 1.36,1.36 0 0 0 1.1,-0.41 1.92,1.92 0 0 0 0,-1.58 17.79,17.79 0 0 0 -3.88,-4.27 m 0.63,-3.12 a 0.55,0.55 0 0 0 0,0.44 57.25,57.25 0 0 0 5.46,5.42 l 0.14,0.05 0.11,-0.06 a 0.25,0.25 0 0 0 0,-0.25 35.44,35.44 0 0 0 -5.64,-5.65 z m 1.03,-1.02 h -0.08 a 0.66,0.66 0 0 0 0,0.58 41.39,41.39 0 0 1 5.83,6.3 0.84,0.84 0 0 1 0.14,0.92 1,1 0 0 1 -0.84,0.5 1,1 0 0 1 -0.68,-0.26 c -1.32,-1.16 -2.54,-2.51 -3.78,-3.78 -0.53,-0.55 -1.08,-1.14 -1.59,-1.65 l -0.17,-0.07 -0.15,0.14 a 0.74,0.74 0 0 0 0,0.65 l 3.92,4.19 a 5.12,5.12 0 0 0 1.93,1.45 4.13,4.13 0 0 0 0.89,0.09 1.45,1.45 0 0 0 1.21,-0.49 1.56,1.56 0 0 0 0.08,-1.41 24.72,24.72 0 0 0 -6.71,-7.13 z m 9.64,7.21 a 1.15,1.15 0 0 1 -0.8,-0.54 46.7,46.7 0 0 0 -8.13,-8.7 l -0.1,-0.07 -0.08,0.09 a 1.17,1.17 0 0 0 0.07,1 46.91,46.91 0 0 1 5.51,5.76 l 0.07,0.06 a 31.6,31.6 0 0 0 3,3.25 2.22,2.22 0 0 0 1.12,0.33 1.08,1.08 0 0 0 0.86,-0.38 1,1 0 0 0 0.14,-0.83 33.34,33.34 0 0 0 -10.16,-11.3 c -0.1,-0.1 -0.16,-0.14 -0.21,-0.14 h -0.06 a 1.22,1.22 0 0 0 0.36,1 49.73,49.73 0 0 1 8.6,9.57 c 0.17,0.32 0.2,0.56 0.1,0.73 a 0.36,0.36 0 0 1 -0.31,0.17 m 4.96,0.04 a 0.94,0.94 0 0 0 0.55,0.25 0.2,0.2 0 0 0 0.17,-0.08 c 0.08,-0.14 0,-0.45 -0.17,-0.83 a 41.32,41.32 0 0 0 -12,-13.5999997 1.21,1.21 0 0 0 -0.55,-0.14 c -0.19,0 -0.3,0.06 -0.31,0.1 -0.01,0.04 0,0.16 0.4,0.36 3.07,2.4299997 6.9,5.9999997 11.91,13.9399997 m -10.21,-15.2399997 c 0,0.06 0,0.2 0.23,0.38 4.94,3.5699997 8.89,8.6999997 12.06,15.7099997 a 0.76,0.76 0 0 1 -0.08,0.61 0.44,0.44 0 0 1 -0.31,0.13 2,2 0 0 1 -0.93,-0.37 10.65,10.65 0 0 1 -2.89,-2.85 44.66,44.66 0 0 0 -11.29,-11.9999997 0.43,0.43 0 0 0 -0.25,-0.13 h -0.1 a 0.88,0.88 0 0 0 0.3,0.75 c 3.42,2.3299997 7.18,6.6099997 11.48,13.0999997 a 6.78,6.78 0 0 0 5.9,3 l 0.73,-0.05 c 0.4,-0.09 0.45,-0.2 0.45,-0.2 0,0 0,-0.14 -0.23,-0.28 a 6.24,6.24 0 0 1 -2.26,-3.17 36.87,36.87 0 0 0 -12.23,-14.5999997 0.79,0.79 0 0 0 -0.39,-0.12 0.2,0.2 0 0 0 -0.19,0.09 m -29.72,2.33 v 0 c 0.12,0.39 3.19,1.8699997 3.55,1.9999997 a 1.12,1.12 0 0 0 0.48,0.14 0.69,0.69 0 0 0 0.43,-0.21 1,1 0 0 0 0.22,-1.2599997 7.61,7.61 0 0 0 -4.08,-2.27 h -0.08 v 0 0.08 c 0,0 0.09,0.09 0.21,0.13 a 10.53,10.53 0 0 1 2.89,1.57 v 0 c 0.18,0.15 0.38,0.31 0.32,0.59 a 1.17,1.17 0 0 1 -0.31,0.3899997 l -0.16,0.05 a 2.85,2.85 0 0 1 -1,-0.3899997 l -0.19,-0.1 v 0 a 9.21,9.21 0 0 0 -2.17,-0.93 z m 1.52,3.4299997 c -0.31,0 -0.74,-0.77 -0.87,-1 l -0.16,-0.08 h -0.08 a 0.47,0.47 0 0 0 0,0.28 2.71,2.71 0 0 0 0.77,1.42 0.69,0.69 0 0 0 0.45,0.14 1.82,1.82 0 0 0 1.18,-0.75 0.8,0.8 0 0 0 -0.07,-0.86 6.21,6.21 0 0 0 -2.48,-1.6299997 h -0.09 v 0 0 a 8.8,8.8 0 0 0 0.82,0.6199997 v 0 a 4.62,4.62 0 0 1 1,0.86 0.58,0.58 0 0 1 0.09,0.53 0.87,0.87 0 0 1 -0.57,0.43 m -1.87,1.02 c -0.15,0 -0.43,-0.43 -0.55,-0.74 l -0.11,-0.07 -0.13,0.07 a 0.28,0.28 0 0 0 0,0.24 1.67,1.67 0 0 0 0.63,1.07 0.59,0.59 0 0 0 0.35,0.1 0.62,0.62 0 0 0 0.59,-0.51 1.63,1.63 0 0 0 -0.66,-1.37 v 0.05 a 2.06,2.06 0 0 1 0.23,1 c 0,0.17 -0.17,0.16 -0.26,0.17 m 1.38,-6.4599997 a 8,8 0 0 1 2,0.86 l 0.43,0.23 c 0.51,0.27 1.09,0.57 1.71,0.84 l 0.21,0.06 c 0.07,0 0.15,-0.07 0.23,-0.16 v 0 a 3,3 0 0 0 0.85,-1.69 v -0.06 h -0.06 a 2.08,2.08 0 0 1 -0.66,0.12 2.27,2.27 0 0 1 -0.76,-0.14 8.6,8.6 0 0 0 -3.55,-1.15 h -0.15 v 0 0 0.13 h 0.05 a 11.19,11.19 0 0 1 3.74,1.49 v 0 c 0.1,0.06 0.31,0.19 0.33,0.3 v 0.09 a 0.36,0.36 0 0 1 -0.3,0.12 l -0.18,-0.07 -0.18,-0.09 a 25.06,25.06 0 0 0 -3.64,-1.24 v 0 a 0.16,0.16 0 0 0 -0.17,0.11 0.29,0.29 0 0 0 0.14,0.25 m -2.2,-1.03 c 0.4,-0.34 0.79,-1.28 1,-0.79 a 1.76,1.76 0 0 1 -0.23,1.4 c -0.16,0.25 0,0.39 0.19,0.49 h 0.09 c 0,0 0.08,0 0.14,-0.11 a 3,3 0 0 0 0.39,-2.14 1.63,1.63 0 0 0 -0.6,-1.06 l -0.19,-0.09 a 0.34,0.34 0 0 0 -0.19,0.18 l -0.22,0.8 a 1.64,1.64 0 0 1 -0.43,0.77 0.94,0.94 0 0 0 -0.33,0.59 c 0,0.22 0.12,0.1 0.38,-0.12 m -4.36,6.2599997 a 3.07,3.07 0 0 0 0.77,-0.18 18.42,18.42 0 0 1 3.22,-1.39 c 0.12,0 0.29,-0.07 0.36,0 a 0.47,0.47 0 0 1 -0.13,0.78 l -1.38,0.62 c -0.08,0.06 -0.1,0.1 -0.1,0.11 0,0.01 0.15,0.11 0.46,0.1 v 0 c 1.38,-0.32 1.9,-0.86 1.74,-1.65 a 0.75,0.75 0 0 0 -0.7,-0.45 2.34,2.34 0 0 0 -1.18,0.2 c -0.69,0.28 -1.74,0.87 -2.37,1.1 a 4.26,4.26 0 0 0 -0.8,0.4 c -0.15,0.09 -0.57,0.46 0.06,0.37 m 3.26,-3.1699997 a 8.44,8.44 0 0 1 -1.79,1.0599997 2.3,2.3 0 0 0 -0.93,0.6 0.4,0.4 0 0 0 -0.06,0.16 h 0.09 v 0 a 10.69,10.69 0 0 0 3.29,-1.7999997 c 0.69,-0.56 0.88,-1.11 0.6,-1.67 a 0.22,0.22 0 0 0 -0.19,-0.11 0.38,0.38 0 0 0 -0.23,0.1 c -0.56,0.53 -2.88,1.74 -3.3,2.07 -0.16,0.12 -0.19,0.2 -0.19,0.24 a 0.14,0.14 0 0 0 0.2,0.12 c 0.37,-0.09 1.9,-1.07 2.26,-1.25 0.52,-0.23 0.6,-0.15 0.63,-0.08 0.03,0.07 -0.16,0.35 -0.41,0.54 m -2.84,-0.1 h 0.07 c 2.32,-1.08 2.8,-2.47 2.89,-3.21 a 2.06,2.06 0 0 0 -0.58,-1.81 v 0 0 a 3.43,3.43 0 0 1 -0.61,3 c -0.52,0.42 -1.12,0.88 -1.73,1.32 l -0.27,0.2 c -0.09,0.07 -0.13,0.15 -0.09,0.24 a 0.41,0.41 0 0 0 0.36,0.23 m 0.05,-1.44 c 0.15,0 0.23,-0.25 0.27,-0.47 0.04,-0.22 0,-0.81 0.37,-0.88 0.37,-0.07 0.17,0.39 0.29,0.45 0.12,0.06 0.2,-0.05 0.24,-0.2 a 1.73,1.73 0 0 0 -0.6,-1.38 l -0.08,-0.05 c 0,0 0,0 -0.11,0.16 a 7.46,7.46 0 0 0 -0.44,2.17 c 0,0.14 0,0.19 0.06,0.2 m -1.29,1.97 c -0.14,0 -0.23,0.07 -0.16,0.16 0.57,0.9999997 0.31,1.3899997 -0.55,1.7899997 -0.32,0.09 -0.14,0.39 0.14,0.36 a 0.56,0.56 0 0 0 0.27,-0.05 1.33,1.33 0 0 0 0.75,-1.9499997 c -0.14,-0.27 -0.34,-0.33 -0.45,-0.31 m -3.02,1.5799997 a 4.71,4.71 0 0 0 1.22,0.47 h 0.12 a 0.5,0.5 0 0 0 0.34,-0.2 2.37,2.37 0 0 0 0.42,-1.06 3.42,3.42 0 0 1 0.73,-1.4299997 l 0.18,-0.2 a 1.8,1.8 0 0 0 0.47,-0.86 1.27,1.27 0 0 0 -0.41,-1.51 v 0.22 0.08 a 3.51,3.51 0 0 1 -1.6,2.5 l -0.35,0.25 a 5.5,5.5 0 0 0 -1,0.77 0.9,0.9 0 0 0 -0.39,0.6699997 0.4,0.4 0 0 0 0.19,0.3 m -1.68,2.86 v 0 a 1,1 0 0 1 0.4,-0.09 0.93,0.93 0 0 1 0.44,0.11 0.65,0.65 0 0 0 0.25,0.06 0.57,0.57 0 0 0 0.33,-0.13 3.18,3.18 0 0 1 1.08,-0.84 1.81,1.81 0 0 1 0.55,-0.09 1.84,1.84 0 0 1 1.16,0.42 c 0.14,0.17 0.2,0.33 0.14,0.46 -0.06,0.13 -0.19,0.21 -0.44,0.25 h -0.45 a 5,5 0 0 0 -1.15,0.16 1.93,1.93 0 0 0 -1.51,2.14 v 0 c 0,0.19 0,0.68 -0.39,0.69 a 0.77,0.77 0 0 1 -0.51,-0.27 2,2 0 0 1 -0.67,-1.49 2,2 0 0 1 0.8,-1.38 m -1.28,0.92 a 1.65,1.65 0 0 0 -0.18,1.44 3.17,3.17 0 0 0 3.11,2.07 h 0.07 c 0.36,0 0.63,-0.11 0.69,-0.26 0.06,-0.15 -0.1,-0.32 -0.19,-0.41 a 1.78,1.78 0 0 1 -0.73,-2 2,2 0 0 1 1.94,-1.2 2.67,2.67 0 0 1 0.58,0 2.39,2.39 0 0 0 1.16,-0.33 2.65,2.65 0 0 1 1.62,-0.74 2,2 0 0 1 0.75,0.16 v 0 a 0.52,0.52 0 0 1 0,0.8 1.2,1.2 0 0 1 -0.66,0.34 3.56,3.56 0 0 0 -1.31,0.57 c -0.05,0.09 -0.08,0.16 -0.06,0.2 0.02,0.04 0.06,0.06 0.33,0.11 a 2.38,2.38 0 0 0 0.45,0.05 1.37,1.37 0 0 0 0.47,-0.08 9.63,9.63 0 0 0 2.44,-1.46 c 0.26,-0.24 0.27,-0.4 0,-0.67 a 3.1,3.1 0 0 0 -2.15,-0.92 3.73,3.73 0 0 0 -0.85,0.18 5.14,5.14 0 0 1 -1.18,0.17 2.51,2.51 0 0 1 -0.82,-0.17 l -1.73,-0.51 a 2,2 0 0 0 -0.76,-0.16 0.93,0.93 0 0 0 -0.68,0.27 l -0.1,0.1 a 0.73,0.73 0 0 0 0.19,0.13 c 0.16,0.15 0.22,0.3 0.17,0.43 -0.05,0.13 -0.31,0.24 -0.52,0.26 h -0.4 a 0.69,0.69 0 0 0 -0.52,0.19 5.55,5.55 0 0 0 -1.14,1.45 m 37.72,34.77 c 0.1,0 0.15,-0.05 0.15,-0.11 a 0.5,0.5 0 0 0 -0.41,-0.41 c -1,-0.17 -2.29,-1.64 -3.67,-3.2 l -0.73,-0.82 -0.15,-0.07 -0.11,0.14 a 0.23,0.23 0 0 0 0,0.24 l 2.92,3.3 a 2.65,2.65 0 0 0 2,0.89 z m 3.1,0.66 a 2.31,2.31 0 0 0 0.47,-0.07 c 0.09,0 0.12,-0.08 0.1,-0.16 a 0.36,0.36 0 0 0 -0.37,-0.28 4,4 0 0 1 -2.34,-0.89 c -2.17,-2 -4.3,-4.1 -6.34,-6.22 -0.09,-0.09 -0.15,-0.12 -0.2,-0.12 h -0.07 a 1,1 0 0 0 0.13,0.59 1.58,1.58 0 0 0 0.31,0.39 v 0 c 1.19,1.26 2.76,2.83 4.79,4.81 a 6.92,6.92 0 0 0 2,1.49 3.35,3.35 0 0 0 1.53,0.41 m -8.15,-8.22 c 1.8,2 3.7,3.9 5.82,5.92 a 2.78,2.78 0 0 0 1.45,0.86 h 0.1 c 0,0 0,-0.09 -0.14,-0.17 -1.88,-1.6 -3.87,-3.58 -5.57,-5.29 -0.11,-0.12 -0.22,-0.23 -0.33,-0.36 l -0.13,-0.12 a 6.59,6.59 0 0 0 -1.07,-1 h -0.18 a 0.32,0.32 0 0 0 0,0.22 m 11.12,7.88 a 2.31,2.31 0 0 0 1.23,-0.36 c 0.1,-0.09 0.15,-0.17 0.13,-0.24 a 0.35,0.35 0 0 0 -0.21,-0.23 h -0.2 -0.25 -0.12 a 3.84,3.84 0 0 1 -0.55,0.06 2.78,2.78 0 0 1 -1.86,-0.71 c -2,-1.68 -3.58,-3.12 -5,-4.4 l -0.14,-0.11 c -1,-1 -2,-1.87 -3.1,-2.78 a 0.26,0.26 0 0 0 -0.21,-0.09 h -0.09 a 0.42,0.42 0 0 0 0,0.27 c 0,0.09 0.09,0.15 0.23,0.3 l 0.49,0.5 c 2.46,2.31 4.67,4.4 7,6.43 a 5.15,5.15 0 0 0 1.63,1.18 4.23,4.23 0 0 0 1,0.13 m -7.81,-20.81 h 0.2 0.08 a 0.58,0.58 0 0 0 0,-0.15 2.33,2.33 0 0 0 -0.35,-0.56 1.42,1.42 0 0 0 -0.63,-0.4 1.38,1.38 0 0 0 -0.45,-0.09 c -0.1,0 -0.15,0 -0.16,0 v 0.15 a 3.79,3.79 0 0 0 1.3,1 m 6.33,17.91 -8.18,-6.85 a 0.45,0.45 0 0 0 -0.25,-0.1 h -0.07 c 0,0.07 0,0.26 0.23,0.49 2.37,2.18 5,4.43 7.64,6.71 a 9.53,9.53 0 0 0 1.11,0.84 1,1 0 0 0 0.45,0.12 c 0.15,0 0.27,-0.06 0.3,-0.15 0.03,-0.09 0,-0.07 0,-0.16 z m 3.06,-0.56 a 9.81,9.81 0 0 0 1.61,1 0.77,0.77 0 0 0 0.32,0.07 c 0.09,0 0.14,0 0.16,-0.06 0.02,-0.06 0,-0.19 -0.2,-0.35 l -12.59,-9.73 -0.17,-0.07 -0.08,0.06 c 0,0.1 0,0.39 0.36,0.7 z m 5.24,0.73 c -1.12,-0.7 -1.91,-1.21 -2.53,-1.66 -4.36,-3.3 -8.78,-6.49 -13.52,-9.77 a 0.53,0.53 0 0 0 -0.25,-0.11 c 0,0 -0.05,0 -0.08,0.08 a 0.87,0.87 0 0 0 0.45,0.83 l 14.06,10.32 0.17,0.11 a 1.27,1.27 0 0 1 0.52,0.43 c 0,0.11 0.14,0.39 -0.25,0.68 a 3,3 0 0 1 -1.37,0.36 3.91,3.91 0 0 1 -2.42,-0.93 c -3.75,-2.94 -7.48,-5.94 -10.94,-8.74 a 0.41,0.41 0 0 0 -0.26,-0.11 h -0.08 a 0.62,0.62 0 0 0 0,0.53 1,1 0 0 0 0.45,0.55 c 3.63,3 7.29,6 10.84,8.87 a 4.59,4.59 0 0 0 2.37,0.65 4.81,4.81 0 0 0 3,-1.22 0.6,0.6 0 0 0 -0.14,-0.87 m -15.51,-16.79 h 0.13 c 0.47,0.16 0.89,0.33 1.23,0.48 a 3.48,3.48 0 0 1 1.08,0.78 20,20 0 0 1 2.1,2.57 l 0.12,0.17 c 0.53,0.74 1.09,1.51 1.74,2.26 a 0.42,0.42 0 0 0 0.34,0.16 0.26,0.26 0 0 0 0.21,-0.09 0.45,0.45 0 0 0 0,-0.4 26.73,26.73 0 0 0 -1.87,-4.51 1,1 0 0 0 -0.84,-0.41 v 0 0.09 l 0.44,0.82 v 0.19 0 0 a 0.24,0.24 0 0 1 -0.22,0.14 v 0 l -0.17,-0.07 v 0 -0.05 a 8.18,8.18 0 0 0 -1.17,-1.39 2.1,2.1 0 0 0 -0.68,-0.46 c -0.42,-0.18 -0.94,-0.38 -1.56,-0.61 a 8.71,8.71 0 0 1 -1.15,-0.7 c -0.37,-0.32 -0.78,-0.68 -1.22,-1.1 a 0.48,0.48 0 0 0 -0.24,-0.09 0.21,0.21 0 0 0 -0.19,0.12 0.63,0.63 0 0 0 0,0.56 3.5,3.5 0 0 0 1.21,1.18 3.9,3.9 0 0 0 0.73,0.31 m 3.8,-4.23 a 0.52,0.52 0 0 0 -0.4,0.17 v 0.09 a 5.67,5.67 0 0 0 2.14,2.18 h 0.2 0.08 c 0,0 0,-0.11 -0.14,-0.24 a 6.44,6.44 0 0 1 -1.45,-2 0.49,0.49 0 0 0 -0.43,-0.21 m 5.67,11.7 v 0.09 c 0.1,0.28 0.18,0.53 0.27,0.79 a 1.48,1.48 0 0 0 0.32,0.61 c 0.1,0.11 0.2,0.18 0.29,0.17 0.09,-0.01 0.21,-0.15 0.24,-0.24 a 1.71,1.71 0 0 0 0,-0.62 c -0.23,-4.2 -0.81,-6.6 -1.86,-7.75 -0.23,-0.23 -0.34,-0.24 -0.35,-0.24 -0.01,0 0,0 0,0.2 a 0.8,0.8 0 0 0 0.14,0.42 7.57,7.57 0 0 1 0.67,1.91 0.63,0.63 0 0 1 -0.08,0.57 l -0.1,0.06 v 0 0 c -0.16,0 -0.34,-0.17 -0.47,-0.48 a 5.13,5.13 0 0 0 -2.18,-2.66 13.78,13.78 0 0 1 -3.19,-2.45 7.68,7.68 0 0 1 -0.85,-1.33 0.34,0.34 0 0 0 -0.21,-0.21 c -0.17,0 -0.4,0.29 -0.46,0.57 a 0.4,0.4 0 0 0 0.07,0.37 6.43,6.43 0 0 0 2.7,2.82 7.28,7.28 0 0 1 3.74,3.6 c 0.7,1.66 1.11,2.93 1.38,3.78 m 4.46,-9.88 a 7.84,7.84 0 0 1 -0.79,-1.84 l -0.21,-1.07 a 0.93,0.93 0 0 0 -0.23,-0.52 0.9,0.9 0 0 0 -0.64,-0.32 0.28,0.28 0 0 0 -0.22,0.08 0.35,0.35 0 0 0 0,0.29 7.48,7.48 0 0 0 2,3.95 v 0 c 0.09,0.08 0.14,0.13 0.23,0.13 v 0 h 0.07 a 0.54,0.54 0 0 0 0,-0.24 1.6,1.6 0 0 0 -0.2,-0.45 m 2.68,10.15 h -0.08 c -0.11,0 -0.28,-0.07 -0.43,-0.4 a 1.64,1.64 0 0 1 -0.16,-0.55 l -0.68,-4.19 a 7.24,7.24 0 0 0 -1.56,-3.24 14.64,14.64 0 0 1 -3,-5.17 c -0.15,-0.58 -0.36,-0.73 -0.46,-0.73 -0.1,0 -0.22,0.18 -0.27,0.5 a 1.23,1.23 0 0 0 0.07,0.66 10.47,10.47 0 0 0 2.64,4.81 4,4 0 0 1 1.41,2.55 v 0 c 0.1,0.49 0.21,1 0.3,1.49 v 0 a 34.26,34.26 0 0 0 1.76,6.53 5.76,5.76 0 0 1 0.47,1.94 c 0.09,1.57 0.17,2.52 0.26,3.31 0.08,0.63 0.29,0.91 0.42,0.91 0.13,0 0.28,-0.22 0.37,-0.8 a 36.85,36.85 0 0 0 0,-7.92 29,29 0 0 0 -0.53,-4.28 4.42,4.42 0 0 0 -0.8,-1.74 c -0.26,-0.31 -0.38,-0.38 -0.44,-0.39 a 1.07,1.07 0 0 0 0,0.43 32.42,32.42 0 0 1 0.92,5.44 0.84,0.84 0 0 1 -0.14,0.67 z m -7.86,-12.67 a 0.48,0.48 0 0 0 -0.51,-0.37 0.53,0.53 0 0 0 -0.32,0.13 v 0.13 a 6.24,6.24 0 0 0 1.79,3 l 0.21,0.11 h 0.06 a 0.44,0.44 0 0 0 -0.07,-0.29 7.06,7.06 0 0 1 -1.14,-2.68 m 4.45,12.43 h -0.07 c -0.19,0 -0.37,-0.19 -0.46,-0.46 a 11.4,11.4 0 0 1 -1,-3.58 c -0.1,-0.51 -0.2,-1 -0.35,-1.51 a 4,4 0 0 0 -1.3,-2.27 11.09,11.09 0 0 1 -3.39,-4.47 c -0.19,-0.42 -0.41,-0.67 -0.59,-0.66 a 0.28,0.28 0 0 0 -0.22,0.14 1,1 0 0 0 -0.11,0.86 10.8,10.8 0 0 0 1.46,2.66 4.16,4.16 0 0 0 0.64,0.63 l 0.13,0.11 a 11.08,11.08 0 0 1 2,2 4.87,4.87 0 0 1 0.73,2.21 c 0,0.17 0.06,0.33 0.08,0.5 v 0.13 a 20.22,20.22 0 0 0 2.06,5.75 6.85,6.85 0 0 1 0.57,1.89 l 0.37,2.43 c 0.11,0.63 0.32,0.79 0.42,0.79 h 0.11 a 0.92,0.92 0 0 0 0.16,-0.67 46,46 0 0 0 -0.34,-7.24 c -0.37,-2.88 -0.88,-4.75 -1.53,-5.72 a 0.76,0.76 0 0 0 -0.58,-0.42 h -0.06 a 0.75,0.75 0 0 0 0.11,0.45 17.36,17.36 0 0 1 1.37,5.81 0.74,0.74 0 0 1 -0.09,0.54 z m 5.03,-10.95 -0.08,-0.71 a 0.89,0.89 0 0 0 -0.12,-0.39 1.32,1.32 0 0 0 -0.8,-0.62 1,1 0 0 0 -0.26,0 h -0.1 c 0,0 0,0.06 0,0.18 a 6.48,6.48 0 0 0 1.94,3.84 h 0.14 v 0 a 0.8,0.8 0 0 0 0,-0.4 l -0.52,-1.22 a 2.15,2.15 0 0 1 -0.19,-0.69 m 4.08,6.19 a 21.23,21.23 0 0 0 -1.6,-6.7 0.69,0.69 0 0 0 -0.6,-0.25 0.44,0.44 0 0 0 -0.33,0.12 v 0.27 a 23.51,23.51 0 0 1 1.47,6.23 10.45,10.45 0 0 1 -0.63,4.24 14.49,14.49 0 0 0 0,3.29 c 0,0.44 -0.22,0.65 -0.4,0.65 -0.18,0 -0.41,-0.18 -0.44,-0.69 -0.09,-1.25 -0.13,-2.32 -0.16,-3.28 v -0.1 a 20.64,20.64 0 0 0 -0.45,-4.54 9.4,9.4 0 0 0 -2.13,-3.28 9.29,9.29 0 0 1 -1.18,-2.54 c -0.06,-0.19 -0.1,-0.39 -0.15,-0.62 -0.05,-0.23 -0.14,-0.51 -0.21,-0.74 l -0.49,-1.39 a 0.32,0.32 0 0 0 -0.28,-0.14 0.81,0.81 0 0 0 -0.59,0.31 0.54,0.54 0 0 0 -0.11,0.43 l 1.2,4.06 a 7.32,7.32 0 0 0 1.46,2.08 v 0 c 0.33,0.38 0.63,0.72 0.91,1.09 a 3.52,3.52 0 0 1 0.68,1.92 c 0.2,1.39 0.36,3.37 0.51,6.23 l 0.81,4.09 a 13.82,13.82 0 0 1 -0.18,4.56 c 0,0.6 0,0.8 0.1,0.87 h 0.09 c 0.07,0 0.27,0 0.7,-0.46 1.14,-1.39 1.08,-6.08 1,-9.86 a 20.6,20.6 0 0 1 0.54,-3.07 9.21,9.21 0 0 0 0.4,-2.78"/></svg>